<svg width="80" height="80" viewBox="0 0 80 80" fill="none" xmlns="http://www.w3.org/2000/svg">
<foreignObject x="-25" y="-25" width="130" height="130"><div xmlns="http://www.w3.org/1999/xhtml" style="backdrop-filter:blur(12.5px);clip-path:url(#bgblur_0_2322_8019_clip_path);height:100%;width:100%"></div></foreignObject><g data-figma-bg-blur-radius="25">
<mask id="path-1-inside-1_2322_8019" fill="white">
<path d="M0 40C0 17.9086 17.9086 0 40 0C62.0914 0 80 17.9086 80 40C80 62.0914 62.0914 80 40 80C17.9086 80 0 62.0914 0 40Z"/>
</mask>
<path d="M0 40C0 17.9086 17.9086 0 40 0C62.0914 0 80 17.9086 80 40C80 62.0914 62.0914 80 40 80C17.9086 80 0 62.0914 0 40Z" fill="#171616"/>
<path d="M0 40C0 17.9086 17.9086 0 40 0C62.0914 0 80 17.9086 80 40C80 62.0914 62.0914 80 40 80C17.9086 80 0 62.0914 0 40Z" fill="url(#paint0_linear_2322_8019)"/>
<g clip-path="url(#paint1_diamond_2322_8019_clip_path)" data-figma-skip-parse="true" mask="url(#path-1-inside-1_2322_8019)"><g transform="matrix(0.0492394 0.0554037 -0.0554037 0.0265996 40 40)"><rect x="0" y="0" width="769.317" height="981.713" fill="url(#paint1_diamond_2322_8019)" opacity="1" shape-rendering="crispEdges"/><rect x="0" y="0" width="769.317" height="981.713" transform="scale(1 -1)" fill="url(#paint1_diamond_2322_8019)" opacity="1" shape-rendering="crispEdges"/><rect x="0" y="0" width="769.317" height="981.713" transform="scale(-1 1)" fill="url(#paint1_diamond_2322_8019)" opacity="1" shape-rendering="crispEdges"/><rect x="0" y="0" width="769.317" height="981.713" transform="scale(-1)" fill="url(#paint1_diamond_2322_8019)" opacity="1" shape-rendering="crispEdges"/></g></g><path d="M40 80V78.9153C18.5077 78.9153 1.08475 61.4923 1.08475 40H0H-1.08475C-1.08475 62.6905 17.3095 81.0847 40 81.0847V80ZM80 40H78.9153C78.9153 61.4923 61.4923 78.9153 40 78.9153V80V81.0847C62.6905 81.0847 81.0847 62.6905 81.0847 40H80ZM40 0V1.08475C61.4923 1.08475 78.9153 18.5077 78.9153 40H80H81.0847C81.0847 17.3095 62.6905 -1.08475 40 -1.08475V0ZM40 0V-1.08475C17.3095 -1.08475 -1.08475 17.3095 -1.08475 40H0H1.08475C1.08475 18.5077 18.5077 1.08475 40 1.08475V0Z" data-figma-gradient-fill="{&#34;type&#34;:&#34;GRADIENT_DIAMOND&#34;,&#34;stops&#34;:[{&#34;color&#34;:{&#34;r&#34;:1.0,&#34;g&#34;:1.0,&#34;b&#34;:1.0,&#34;a&#34;:1.0},&#34;position&#34;:0.0},{&#34;color&#34;:{&#34;r&#34;:0.60000002384185791,&#34;g&#34;:0.60000002384185791,&#34;b&#34;:0.60000002384185791,&#34;a&#34;:0.10000000149011612},&#34;position&#34;:1.0}],&#34;stopsVar&#34;:[{&#34;color&#34;:{&#34;r&#34;:1.0,&#34;g&#34;:1.0,&#34;b&#34;:1.0,&#34;a&#34;:1.0},&#34;position&#34;:0.0},{&#34;color&#34;:{&#34;r&#34;:0.60000002384185791,&#34;g&#34;:0.60000002384185791,&#34;b&#34;:0.60000002384185791,&#34;a&#34;:0.10000000149011612},&#34;position&#34;:1.0}],&#34;transform&#34;:{&#34;m00&#34;:98.47888183593750,&#34;m01&#34;:-110.80744934082031,&#34;m02&#34;:46.164287567138672,&#34;m10&#34;:110.80744934082031,&#34;m11&#34;:53.199249267578125,&#34;m12&#34;:-42.003353118896484},&#34;opacity&#34;:1.0,&#34;blendMode&#34;:&#34;NORMAL&#34;,&#34;visible&#34;:true}" mask="url(#path-1-inside-1_2322_8019)"/>
</g>
<path d="M34.1543 42.9229C35.7683 42.9231 37.0769 44.2317 37.0771 45.8457V56.0771C37.077 57.6912 35.7684 58.9998 34.1543 59H23.9229C22.3087 58.9999 21.0001 57.6913 21 56.0771V45.8457C21.0002 44.2316 22.3087 42.923 23.9229 42.9229H34.1543ZM56.0771 42.9229C57.6913 42.923 58.9998 44.2316 59 45.8457V56.0771C58.9999 57.6913 57.6913 58.9999 56.0771 59H45.8457C44.2316 58.9998 42.923 57.6913 42.9229 56.0771V45.8457C42.9231 44.2316 44.2316 42.9231 45.8457 42.9229H56.0771ZM50.208 22.2861C50.622 22.2864 50.958 22.6221 50.958 23.0361V29.0244H56.9463C57.3602 29.0247 57.6962 29.3604 57.6963 29.7744C57.6963 30.1885 57.3603 30.5241 56.9463 30.5244H50.958V36.5137C50.9578 36.9275 50.6219 37.2634 50.208 37.2637C49.794 37.2636 49.4582 36.9276 49.458 36.5137V30.5244H43.4688C43.0546 30.5243 42.7188 30.1886 42.7188 29.7744C42.7188 29.3603 43.0546 29.0245 43.4688 29.0244H49.458V23.0361C49.458 22.622 49.7939 22.2862 50.208 22.2861ZM34.1543 21C35.7684 21.0002 37.077 22.3087 37.0771 23.9229V34.1543C37.0769 35.7683 35.7683 37.0769 34.1543 37.0771H23.9229C22.3087 37.077 21.0002 35.7684 21 34.1543V23.9229C21.0001 22.3087 22.3087 21.0001 23.9229 21H34.1543Z" fill="#88EF56"/>
<defs>
<clipPath id="bgblur_0_2322_8019_clip_path" transform="translate(25 25)"><path d="M0 40C0 17.9086 17.9086 0 40 0C62.0914 0 80 17.9086 80 40C80 62.0914 62.0914 80 40 80C17.9086 80 0 62.0914 0 40Z"/>
</clipPath><clipPath id="paint1_diamond_2322_8019_clip_path"><path d="M40 80V78.9153C18.5077 78.9153 1.08475 61.4923 1.08475 40H0H-1.08475C-1.08475 62.6905 17.3095 81.0847 40 81.0847V80ZM80 40H78.9153C78.9153 61.4923 61.4923 78.9153 40 78.9153V80V81.0847C62.6905 81.0847 81.0847 62.6905 81.0847 40H80ZM40 0V1.08475C61.4923 1.08475 78.9153 18.5077 78.9153 40H80H81.0847C81.0847 17.3095 62.6905 -1.08475 40 -1.08475V0ZM40 0V-1.08475C17.3095 -1.08475 -1.08475 17.3095 -1.08475 40H0H1.08475C1.08475 18.5077 18.5077 1.08475 40 1.08475V0Z" mask="url(#path-1-inside-1_2322_8019)"/></clipPath><linearGradient id="paint0_linear_2322_8019" x1="48.8889" y1="-11.1599" x2="49.4292" y2="48.8439" gradientUnits="userSpaceOnUse">
<stop stop-color="#464646"/>
<stop offset="1" stop-color="#161614"/>
</linearGradient>
<linearGradient id="paint1_diamond_2322_8019" x1="0" y1="0" x2="500" y2="500" gradientUnits="userSpaceOnUse">
<stop stop-color="white"/>
<stop offset="1" stop-color="#999999" stop-opacity="0.1"/>
</linearGradient>
</defs>
</svg>
