<svg width="235" height="79" viewBox="0 0 235 79" fill="none" xmlns="http://www.w3.org/2000/svg">
<path d="M0 13.4542C0 6.02366 6.02365 0 13.4542 0H64.8791C72.3097 0 78.3333 6.02365 78.3333 13.4542V64.8791C78.3333 72.3097 72.3097 78.3333 64.8791 78.3333H13.4542C6.02366 78.3333 0 72.3097 0 64.8791V13.4542Z" fill="#E3E3E3"/>
<path d="M0 13.4542C0 6.02366 6.02365 0 13.4542 0H64.8791C72.3097 0 78.3333 6.02365 78.3333 13.4542V64.8791C78.3333 72.3097 72.3097 78.3333 64.8791 78.3333H13.4542C6.02366 78.3333 0 72.3097 0 64.8791V13.4542Z" fill="url(#paint0_linear_4060_607)"/>
<path fill-rule="evenodd" clip-rule="evenodd" d="M21.5267 39.2798C32.6827 39.2798 39.0781 32.8108 39.0781 21.5266C39.0781 32.8108 45.4736 39.2798 56.6296 39.2798C45.4736 39.2798 39.0781 45.7487 39.0781 57.0329C39.0781 45.7487 32.6827 39.2798 21.5267 39.2798Z" fill="white"/>
<path d="M156.667 13.4542C156.667 6.02366 162.69 0 170.121 0H221.546C228.976 0 235 6.02365 235 13.4542V64.8791C235 72.3097 228.976 78.3333 221.546 78.3333H170.121C162.69 78.3333 156.667 72.3097 156.667 64.8791V13.4542Z" fill="url(#paint1_linear_4060_607)"/>
<path d="M191.978 20.2306C188.812 20.2306 186.255 22.5461 186.255 25.4129C186.255 28.2578 188.812 30.5732 191.954 30.5953C191.175 30.5732 190.566 29.9999 190.566 29.2942C190.566 28.5885 191.199 27.9931 192.003 27.9931C195.412 27.9931 202.986 27.9931 206.322 27.9931C208.685 27.9931 210.609 26.251 210.609 24.1119C210.609 21.9727 208.685 20.2306 206.322 20.2306L191.978 20.2306Z" fill="#A1FF89"/>
<path opacity="0.9" d="M185.02 30.5952C181.854 30.5952 179.297 32.9107 179.297 35.7776C179.297 38.6224 181.854 40.9379 184.996 40.9599C184.216 40.9379 183.607 40.3645 183.607 39.6588C183.607 38.9531 184.241 38.3577 185.044 38.3577C188.454 38.3577 196.028 38.3577 199.364 38.3577C201.726 38.3577 203.65 36.6156 203.65 34.4765C203.65 32.3374 201.726 30.5952 199.364 30.5952L185.02 30.5952Z" fill="#A1FF89"/>
<path opacity="0.8" d="M180.21 40.96C176.818 40.96 174.078 43.4536 174.078 46.541C174.078 49.6046 176.818 52.0982 180.184 52.122C179.349 52.0982 178.697 51.4808 178.697 50.7208C178.697 49.9608 179.375 49.3196 180.236 49.3196C183.889 49.3196 192.004 49.3196 195.579 49.3196C198.11 49.3196 200.171 47.4434 200.171 45.1398C200.171 42.8361 198.11 40.96 195.579 40.96L180.21 40.96Z" fill="#A1FF89"/>
<path d="M159.283 38.0939C159.283 59.1325 141.162 76.1877 118.808 76.1877C96.4545 76.1877 78.3334 59.1325 78.3334 38.0939C78.3334 17.0552 96.4545 0 118.808 0C141.162 0 159.283 17.0552 159.283 38.0939Z" fill="#88EF56"/>
<path d="M118.18 41.1901H120.932V38.4898H119.556V35.7894H126.434V42.5405L120.932 47.9413V42.5403L118.18 45.2406H115.429C114.666 45.2406 114.018 44.9769 113.484 44.4494C112.946 43.9222 112.678 43.2856 112.678 42.5401V31.7387C112.678 30.9932 112.946 30.3586 113.484 29.8347C114.021 29.3039 114.67 29.0384 115.429 29.0384H126.802C127.394 29.0384 127.961 28.8079 128.379 28.3975L133.416 23.4546C134.013 22.8683 133.59 21.8657 132.745 21.8657H110.657C109.311 21.8657 108.162 22.3362 107.21 23.2769C106.258 24.2053 105.782 25.33 105.782 26.6509V45.7914C105.782 47.1125 106.258 48.2399 107.21 49.1747C108.156 50.1094 109.305 50.5766 110.657 50.5766H115.533L118.2 50.602C119.423 50.6136 120.408 51.5902 120.408 52.7907V55.362L129.506 46.4327C129.924 46.0223 130.159 45.4655 130.159 44.885V36.0175C130.159 34.8087 129.161 33.8288 127.929 33.8288H118.181L118.18 41.1901Z" fill="#171616"/>
<defs>
<linearGradient id="paint0_linear_4060_607" x1="47.8704" y1="-10.9274" x2="48.3994" y2="47.8263" gradientUnits="userSpaceOnUse">
<stop stop-color="#464646"/>
<stop offset="1" stop-color="#161614"/>
</linearGradient>
<linearGradient id="paint1_linear_4060_607" x1="204.537" y1="-10.9274" x2="205.066" y2="47.8263" gradientUnits="userSpaceOnUse">
<stop stop-color="#464646"/>
<stop offset="1" stop-color="#161614"/>
</linearGradient>
</defs>
</svg>
