<svg width="125" height="29" viewBox="0 0 125 29" fill="none" xmlns="http://www.w3.org/2000/svg">
<path fill-rule="evenodd" clip-rule="evenodd" d="M10.9008 20.3021C8.8933 20.3021 7.266 18.6788 7.266 16.6762V0H0V16.6762C0 22.6804 4.8819 27.5504 10.9008 27.5504H18.8951V20.3021H10.9008ZM32.7059 7.25532C29.0924 7.25532 26.1647 10.1759 26.1647 13.7805C26.1647 17.3851 29.0924 20.3057 32.7059 20.3057C36.3193 20.3057 39.247 17.3851 39.247 13.7805C39.247 10.1759 36.3193 7.25532 32.7059 7.25532ZM18.8951 13.7769C18.8951 6.17074 25.0775 0.00354242 32.7023 0.00354242C40.3272 0.00354242 46.5095 6.17074 46.5095 13.7769C46.5095 21.3832 40.3272 27.5504 32.7023 27.5504C25.0775 27.5504 18.8951 21.3832 18.8951 13.7769ZM111.193 7.25532C107.579 7.25532 104.652 10.1759 104.652 13.7805C104.652 17.3851 107.579 20.3057 111.193 20.3057C114.806 20.3057 117.734 17.3851 117.734 13.7805C117.734 10.1759 114.806 7.25532 111.193 7.25532ZM97.3857 13.7769C97.3857 6.17074 103.568 0.00354242 111.193 0.00354242C118.818 0.00354242 125 6.17074 125 13.7769C125 21.3832 118.818 27.5504 111.193 27.5504C103.568 27.5504 97.3857 21.3832 97.3857 13.7769ZM61.7734 0.00354242C54.1485 0.00354242 47.9662 6.17074 47.9662 13.7769C47.9662 21.3832 54.1485 27.5504 61.7734 27.5504H82.1217C83.5536 27.5504 84.9322 27.3342 86.2291 26.9301L90.1161 29L94.3087 21.167C95.3746 19.1715 95.9289 16.9492 95.9325 14.6879V13.7734C95.9325 6.1672 89.7502 0 82.1253 0H61.777L61.7734 0.00354242ZM88.6665 13.7769C88.6665 10.1723 85.7388 7.25177 82.1253 7.25177H61.777C58.1635 7.25177 55.2358 10.1723 55.2358 13.7769C55.2358 17.3816 58.1635 20.3021 61.777 20.3021H82.1253C85.7174 20.3021 88.638 17.4135 88.6665 13.8266V13.7769Z" fill="#88EF56"/>
</svg>
