<svg width="19" height="19" viewBox="0 0 19 19" fill="none" xmlns="http://www.w3.org/2000/svg">
<g clip-path="url(#clip0_2358_217)">
<path d="M13.7565 0H5.24317C2.35209 0 0 2.3522 0 5.24328V13.7566C0 16.6478 2.35209 18.9999 5.24317 18.9999H13.7565C16.6478 18.9999 18.9999 16.6477 18.9999 13.7566V5.24328C19 2.3522 16.6478 0 13.7565 0ZM17.3142 13.7566C17.3142 15.7183 15.7183 17.3141 13.7566 17.3141H5.24317C3.28162 17.3142 1.68576 15.7183 1.68576 13.7566V5.24328C1.68576 3.28173 3.28162 1.68576 5.24317 1.68576H13.7565C15.7182 1.68576 17.3141 3.28173 17.3141 5.24328V13.7566H17.3142Z" fill="#171616"/>
<path d="M9.49992 4.60449C6.80034 4.60449 4.60413 6.8007 4.60413 9.50028C4.60413 12.1997 6.80034 14.3958 9.49992 14.3958C12.1995 14.3958 14.3957 12.1997 14.3957 9.50028C14.3957 6.8007 12.1995 4.60449 9.49992 4.60449ZM9.49992 12.71C7.72998 12.71 6.28989 11.2701 6.28989 9.50017C6.28989 7.73012 7.72987 6.29014 9.49992 6.29014C11.27 6.29014 12.7099 7.73012 12.7099 9.50017C12.7099 11.2701 11.2699 12.71 9.49992 12.71Z" fill="#171616"/>
<path d="M14.6011 3.1748C14.2763 3.1748 13.9572 3.30629 13.7279 3.53668C13.4974 3.76595 13.3649 4.08512 13.3649 4.41103C13.3649 4.73593 13.4975 5.05499 13.7279 5.28538C13.9571 5.51464 14.2763 5.64726 14.6011 5.64726C14.927 5.64726 15.2451 5.51464 15.4754 5.28538C15.7058 5.05499 15.8373 4.73582 15.8373 4.41103C15.8373 4.08512 15.7058 3.76595 15.4754 3.53668C15.2462 3.30629 14.927 3.1748 14.6011 3.1748Z" fill="#171616"/>
</g>
<defs>
<clipPath id="clip0_2358_217">
<rect width="19" height="19" fill="white"/>
</clipPath>
</defs>
</svg>
