<svg width="16" height="16" viewBox="0 0 16 16" fill="none" xmlns="http://www.w3.org/2000/svg">
<path d="M13.3333 8.66566C13.3333 11.999 11 13.6657 8.22662 14.6323C8.0814 14.6815 7.92365 14.6792 7.77996 14.6257C4.99996 13.6657 2.66663 11.999 2.66663 8.66566V3.999C2.66663 3.82219 2.73686 3.65262 2.86189 3.52759C2.98691 3.40257 3.15648 3.33233 3.33329 3.33233C4.66663 3.33233 6.33329 2.53233 7.49329 1.519C7.63453 1.39833 7.81419 1.33203 7.99996 1.33203C8.18572 1.33203 8.36539 1.39833 8.50662 1.519C9.67329 2.539 11.3333 3.33233 12.6666 3.33233C12.8434 3.33233 13.013 3.40257 13.138 3.52759C13.2631 3.65262 13.3333 3.82219 13.3333 3.999V8.66566Z" fill="#88EF56" stroke="#88EF56" stroke-width="2.22222" stroke-linecap="round" stroke-linejoin="round"/>
<path d="M6 7.99935L7.33333 9.33268L10 6.66602" stroke="#171616" stroke-width="1.33333" stroke-linecap="round" stroke-linejoin="round"/>
</svg>
