<svg width="197" height="49" viewBox="0 0 197 49" fill="none" xmlns="http://www.w3.org/2000/svg">
<path d="M21.9906 28.1877H25.5389V24.6407H23.7648V21.0936H32.6357V29.9616L25.5389 37.0559V29.9614L21.9906 33.5084H18.4423C17.458 33.5084 16.6218 33.162 15.9334 32.4692C15.2403 31.7765 14.8937 30.9404 14.8937 29.9611V15.7727C14.8937 14.7934 15.2403 13.9598 15.9334 13.2716C16.6262 12.5743 17.4627 12.2256 18.4423 12.2256H33.1104C33.8732 12.2256 34.6046 11.9228 35.1439 11.3837L41.6393 4.89077C42.4098 4.12062 41.8642 2.80371 40.7745 2.80371H12.2879C10.5519 2.80371 9.07016 3.42177 7.84214 4.65744C6.61413 5.87695 6 7.35426 6 9.08936V34.2319C6 35.9673 6.61413 37.4483 7.84214 38.6761C9.06208 39.9039 10.5438 40.5176 12.2879 40.5176H18.5757L22.0155 40.5511C23.5928 40.5663 24.8636 41.849 24.8636 43.426V46.8037L36.597 35.0743C37.1364 34.5352 37.4395 33.8038 37.4395 33.0413V21.3932C37.4395 19.8053 36.1519 18.5182 34.5635 18.5182H21.9908L21.9906 28.1877Z" fill="#88EF56"/>
<path d="M80.7324 18.9563C80.4282 18.0017 80.0191 17.1469 79.5052 16.3916C79.0017 15.6259 78.3985 14.9755 77.6957 14.4406C76.9929 13.8951 76.1905 13.4808 75.2884 13.1976C74.3968 12.9143 73.416 12.7727 72.3461 12.7727C70.5314 12.7727 68.895 13.2395 67.437 14.1731C65.9789 15.1066 64.8251 16.4755 63.9754 18.2797C63.1363 20.0734 62.7167 22.271 62.7167 24.8724C62.7167 27.4843 63.1415 29.6923 63.9912 31.4965C64.8408 33.3007 66.0052 34.6696 67.4842 35.6031C68.9632 36.5367 70.6468 37.0035 72.5349 37.0035C74.2866 37.0035 75.8128 36.6469 77.1135 35.9336C78.4247 35.2203 79.437 34.2133 80.1503 32.9126C80.874 31.6014 81.2359 30.0594 81.2359 28.2867L82.4947 28.5227H73.2744V24.5105H85.9405V28.1766C85.9405 30.8829 85.3635 33.2325 84.2097 35.2255C83.0663 37.208 81.4824 38.7395 79.4579 39.8199C77.444 40.9003 75.1363 41.4406 72.5349 41.4406C69.6188 41.4406 67.0593 40.7692 64.8566 39.4266C62.6642 38.0839 60.9545 36.1801 59.7272 33.715C58.4999 31.2395 57.8863 28.3024 57.8863 24.9038C57.8863 22.3339 58.2429 20.0262 58.9562 17.9808C59.6695 15.9353 60.6712 14.1993 61.9614 12.7727C63.2621 11.3357 64.7884 10.2395 66.5401 9.48426C68.3024 8.71853 70.2272 8.33566 72.3146 8.33566C74.0559 8.33566 75.6765 8.59266 77.1765 9.10664C78.687 9.62063 80.0296 10.3496 81.2045 11.2937C82.3898 12.2378 83.3705 13.3601 84.1468 14.6608C84.923 15.951 85.4475 17.3829 85.7202 18.9563H80.7324ZM91.7346 41V16.8322H96.2818V20.6713H96.5336C96.9741 19.3706 97.7503 18.3479 98.8622 17.6031C99.9846 16.8479 101.254 16.4703 102.67 16.4703C102.964 16.4703 103.31 16.4808 103.708 16.5017C104.117 16.5227 104.437 16.5489 104.668 16.5804V21.0804C104.479 21.028 104.144 20.9703 103.661 20.9073C103.179 20.8339 102.696 20.7972 102.214 20.7972C101.102 20.7972 100.11 21.0332 99.2399 21.5052C98.3797 21.9668 97.6979 22.6119 97.1944 23.4406C96.6909 24.2587 96.4392 25.1923 96.4392 26.2413V41H91.7346ZM115.556 41.535C114.025 41.535 112.64 41.2517 111.402 40.6853C110.165 40.1084 109.184 39.2745 108.46 38.1836C107.747 37.0927 107.39 35.7552 107.39 34.1713C107.39 32.8077 107.652 31.6853 108.177 30.8042C108.701 29.9231 109.409 29.2255 110.301 28.7115C111.193 28.1976 112.189 27.8094 113.291 27.5472C114.392 27.285 115.514 27.0857 116.658 26.9493C118.105 26.7815 119.28 26.6451 120.182 26.5402C121.084 26.4248 121.74 26.2413 122.149 25.9895C122.558 25.7378 122.763 25.3287 122.763 24.7622V24.6521C122.763 23.278 122.374 22.2133 121.598 21.458C120.833 20.7028 119.689 20.3252 118.168 20.3252C116.584 20.3252 115.336 20.6766 114.423 21.3794C113.521 22.0717 112.897 22.8427 112.551 23.6923L108.13 22.6853C108.654 21.2168 109.42 20.0315 110.427 19.1294C111.444 18.2168 112.614 17.5559 113.936 17.1469C115.257 16.7273 116.647 16.5175 118.105 16.5175C119.07 16.5175 120.093 16.6329 121.173 16.8636C122.264 17.0839 123.282 17.493 124.226 18.0909C125.18 18.6888 125.962 19.5437 126.57 20.6556C127.179 21.757 127.483 23.1888 127.483 24.951V41H122.888V37.6958H122.7C122.395 38.3042 121.939 38.9021 121.331 39.4895C120.722 40.0769 119.941 40.5647 118.986 40.9528C118.032 41.3409 116.888 41.535 115.556 41.535ZM116.579 37.7587C117.88 37.7587 118.992 37.5017 119.915 36.9878C120.848 36.4738 121.556 35.8024 122.039 34.9738C122.532 34.1346 122.778 33.2378 122.778 32.2832V29.1678C122.61 29.3357 122.285 29.493 121.803 29.6399C121.331 29.7762 120.791 29.8969 120.182 30.0017C119.574 30.0962 118.981 30.1853 118.404 30.2692C117.827 30.3427 117.345 30.4056 116.957 30.458C116.044 30.5734 115.21 30.7675 114.455 31.0402C113.71 31.3129 113.112 31.7063 112.661 32.2203C112.221 32.7238 112 33.3951 112 34.2343C112 35.3986 112.43 36.2797 113.291 36.8776C114.151 37.465 115.247 37.7587 116.579 37.7587ZM134.127 41V8.77622H138.831V20.75H139.114C139.387 20.2465 139.78 19.6643 140.294 19.0035C140.808 18.3427 141.522 17.7657 142.434 17.2727C143.347 16.7692 144.553 16.5175 146.053 16.5175C148.004 16.5175 149.746 17.0105 151.277 17.9965C152.808 18.9825 154.01 20.4038 154.88 22.2605C155.761 24.1171 156.202 26.3514 156.202 28.9633C156.202 31.5752 155.767 33.8147 154.896 35.6818C154.025 37.5385 152.829 38.9703 151.308 39.9773C149.787 40.9738 148.051 41.472 146.1 41.472C144.632 41.472 143.431 41.2255 142.497 40.7325C141.574 40.2395 140.85 39.6626 140.326 39.0017C139.801 38.3409 139.398 37.7535 139.114 37.2395H138.721V41H134.127ZM138.737 28.9161C138.737 30.6154 138.983 32.1049 139.476 33.3846C139.969 34.6643 140.683 35.6661 141.616 36.3899C142.55 37.1031 143.693 37.4598 145.046 37.4598C146.452 37.4598 147.627 37.0874 148.571 36.3427C149.515 35.5874 150.228 34.5647 150.711 33.2745C151.204 31.9843 151.45 30.5315 151.45 28.9161C151.45 27.3217 151.209 25.8899 150.726 24.6206C150.254 23.3514 149.541 22.3496 148.586 21.6154C147.642 20.8811 146.462 20.514 145.046 20.514C143.683 20.514 142.529 20.8654 141.585 21.5682C140.651 22.271 139.943 23.2517 139.461 24.5105C138.978 25.7692 138.737 27.2378 138.737 28.9161ZM161.485 41V16.8322H166.189V41H161.485ZM163.86 13.1031C163.042 13.1031 162.34 12.8304 161.752 12.285C161.175 11.729 160.887 11.0682 160.887 10.3024C160.887 9.52622 161.175 8.86538 161.752 8.31993C162.34 7.76398 163.042 7.48601 163.86 7.48601C164.679 7.48601 165.376 7.76398 165.953 8.31993C166.541 8.86538 166.834 9.52622 166.834 10.3024C166.834 11.0682 166.541 11.729 165.953 12.285C165.376 12.8304 164.679 13.1031 163.86 13.1031ZM177.223 26.6503V41H172.518V16.8322H177.034V20.7657H177.333C177.889 19.486 178.76 18.458 179.945 17.6818C181.141 16.9056 182.646 16.5175 184.461 16.5175C186.107 16.5175 187.55 16.8636 188.787 17.5559C190.025 18.2378 190.985 19.2552 191.667 20.6084C192.349 21.9615 192.69 23.6346 192.69 25.6276V41H187.985V26.1941C187.985 24.4423 187.529 23.0734 186.616 22.0874C185.704 21.0909 184.45 20.5927 182.856 20.5927C181.765 20.5927 180.794 20.8287 179.945 21.3007C179.106 21.7727 178.44 22.465 177.947 23.3776C177.464 24.2797 177.223 25.3706 177.223 26.6503Z" fill="white"/>
</svg>
