<svg width="59" height="22" viewBox="0 0 59 22" fill="none" xmlns="http://www.w3.org/2000/svg">
<rect x="0.20922" y="0.20922" width="58.5816" height="21.1212" rx="10.5606" fill="white" fill-opacity="0.07"/>
<rect x="0.20922" y="0.20922" width="58.5816" height="21.1212" rx="10.5606" stroke="url(#paint0_linear_2376_1251)" stroke-width="0.41844"/>
<g clip-path="url(#clip0_2376_1251)">
<path d="M10.3547 11.5939H11.2187V10.7301H10.7867V9.86643H12.9468V12.0258L11.2187 13.7533V12.0257L10.3547 12.8895H9.49065C9.25099 12.8895 9.04737 12.8051 8.87972 12.6364C8.71096 12.4677 8.62657 12.2641 8.62657 12.0257V8.57077C8.62657 8.33232 8.71096 8.12933 8.87972 7.96175C9.04844 7.79197 9.25211 7.70706 9.49065 7.70706H13.0624C13.2481 7.70706 13.4262 7.63332 13.5575 7.50204L15.1392 5.92101C15.3268 5.73348 15.1939 5.41281 14.9286 5.41281H7.99204C7.56934 5.41281 7.20853 5.56331 6.9095 5.8642C6.61048 6.16115 6.46094 6.52088 6.46094 6.94338V13.0656C6.46094 13.4882 6.61048 13.8488 6.9095 14.1478C7.20656 14.4468 7.56737 14.5962 7.99204 14.5962H9.52314L10.3607 14.6043C10.7448 14.6081 11.0542 14.9204 11.0542 15.3044V16.1269L13.9114 13.2708C14.0427 13.1395 14.1165 12.9614 14.1165 12.7757V9.93937C14.1165 9.55273 13.803 9.23931 13.4162 9.23931H10.3547L10.3547 11.5939Z" fill="#88EF56"/>
</g>
<path d="M24.3712 9.45963C24.3176 9.27317 24.2422 9.10843 24.1452 8.96539C24.0481 8.8198 23.9294 8.6972 23.7889 8.59758C23.6509 8.49541 23.4926 8.41751 23.3138 8.36387C23.1375 8.31023 22.9422 8.28342 22.7276 8.28342C22.3266 8.28342 21.9741 8.38303 21.6702 8.58226C21.3688 8.78149 21.1338 9.07139 20.9652 9.45197C20.7966 9.82999 20.7123 10.2923 20.7123 10.8389C20.7123 11.3855 20.7953 11.8504 20.9614 12.2335C21.1274 12.6166 21.3624 12.9091 21.6663 13.1109C21.9703 13.3101 22.3291 13.4097 22.7429 13.4097C23.1184 13.4097 23.4389 13.3433 23.7046 13.2105C23.9728 13.0751 24.1771 12.8848 24.3176 12.6396C24.4606 12.3944 24.5321 12.1045 24.5321 11.7699L24.8693 11.8197H22.8464V10.5707H26.1298V11.5592C26.1298 12.2488 25.9842 12.8414 25.693 13.3369C25.4019 13.8299 25.0008 14.2105 24.49 14.4787C23.9792 14.7443 23.3942 14.8771 22.7353 14.8771C21.9996 14.8771 21.3534 14.7149 20.7966 14.3905C20.2398 14.0636 19.8056 13.6 19.494 12.9998C19.1849 12.397 19.0304 11.6818 19.0304 10.8542C19.0304 10.2182 19.1223 9.6512 19.3062 9.15312C19.4927 8.6525 19.7532 8.2285 20.0878 7.88113C20.4224 7.53375 20.8119 7.26939 21.2564 7.08804C21.7008 6.90669 22.1823 6.81602 22.7008 6.81602C23.1452 6.81602 23.559 6.88115 23.9421 7.01142C24.3253 7.13913 24.665 7.32048 24.9613 7.55546C25.2601 7.79045 25.504 8.07014 25.693 8.39452C25.882 8.71635 26.0034 9.07139 26.057 9.45963H24.3712ZM27.3453 14.7698V8.88493H28.9276V9.91173H28.9889C29.0962 9.54647 29.2763 9.27062 29.5291 9.08416C29.782 8.89515 30.0732 8.80064 30.4027 8.80064C30.4844 8.80064 30.5725 8.80575 30.667 8.81597C30.7616 8.82619 30.8446 8.84023 30.9161 8.85811V10.3064C30.8395 10.2834 30.7335 10.2629 30.5981 10.245C30.4627 10.2272 30.3388 10.2182 30.2264 10.2182C29.9863 10.2182 29.7718 10.2706 29.5828 10.3753C29.3963 10.4775 29.2482 10.6205 29.1383 10.8044C29.0311 10.9883 28.9774 11.2003 28.9774 11.4404V14.7698H27.3453ZM33.2695 14.8809C32.894 14.8809 32.5594 14.8158 32.2657 14.6855C31.9719 14.5527 31.7395 14.3573 31.5684 14.0994C31.3998 13.8388 31.3155 13.5144 31.3155 13.1262C31.3155 12.7993 31.3755 12.5247 31.4956 12.3025C31.6156 12.0803 31.7791 11.9015 31.986 11.7661C32.1929 11.6307 32.4279 11.5285 32.6909 11.4596C32.9566 11.3906 33.235 11.3421 33.5262 11.314C33.8684 11.2782 34.1443 11.245 34.3537 11.2144C34.5632 11.1812 34.7152 11.1326 34.8097 11.0688C34.9042 11.0049 34.9514 10.9104 34.9514 10.7853V10.7623C34.9514 10.5196 34.8748 10.3319 34.7215 10.1991C34.5708 10.0663 34.3563 9.99985 34.0779 9.99985C33.7841 9.99985 33.5504 10.065 33.3767 10.1952C33.2031 10.323 33.0881 10.4839 33.0319 10.678L31.5224 10.5554C31.599 10.1978 31.7497 9.88874 31.9745 9.62821C32.1993 9.36512 32.4892 9.16334 32.8442 9.02286C33.2018 8.87982 33.6156 8.80831 34.0855 8.80831C34.4125 8.80831 34.7254 8.84662 35.0242 8.92325C35.3256 8.99987 35.5925 9.11864 35.825 9.27956C36.0599 9.44047 36.2451 9.64736 36.3805 9.90023C36.5159 10.1505 36.5836 10.4507 36.5836 10.8006V14.7698H35.0357V13.9538H34.9897C34.8952 14.1377 34.7688 14.2999 34.6104 14.4403C34.4521 14.5783 34.2618 14.6868 34.0396 14.766C33.8173 14.8426 33.5606 14.8809 33.2695 14.8809ZM33.7369 13.7545C33.977 13.7545 34.189 13.7073 34.3729 13.6128C34.5568 13.5157 34.7011 13.3855 34.8058 13.222C34.9105 13.0585 34.9629 12.8733 34.9629 12.6664V12.0419C34.9118 12.0751 34.8416 12.1058 34.7522 12.1339C34.6653 12.1594 34.567 12.1837 34.4572 12.2067C34.3473 12.2271 34.2375 12.2463 34.1277 12.2642C34.0179 12.2795 33.9182 12.2935 33.8288 12.3063C33.6373 12.3344 33.47 12.3791 33.3269 12.4404C33.1839 12.5017 33.0728 12.5847 32.9936 12.6894C32.9144 12.7916 32.8748 12.9193 32.8748 13.0726C32.8748 13.2948 32.9553 13.4646 33.1162 13.5821C33.2797 13.6971 33.4866 13.7545 33.7369 13.7545ZM37.8805 14.7698V6.9233H39.5126V9.87341H39.5624C39.6339 9.71505 39.7374 9.55414 39.8727 9.39067C40.0107 9.22464 40.1895 9.08671 40.4091 8.97688C40.6313 8.8645 40.9072 8.80831 41.2367 8.80831C41.6658 8.80831 42.0617 8.92069 42.4244 9.14546C42.7871 9.36768 43.077 9.70356 43.2941 10.1531C43.5112 10.6001 43.6198 11.1607 43.6198 11.835C43.6198 12.4915 43.5138 13.0457 43.3018 13.4978C43.0923 13.9474 42.8063 14.2884 42.4436 14.5208C42.0834 14.7507 41.6798 14.8656 41.2329 14.8656C40.9161 14.8656 40.6467 14.8133 40.4245 14.7085C40.2048 14.6038 40.0247 14.4723 39.8842 14.3139C39.7438 14.153 39.6365 13.9908 39.5624 13.8273H39.4896V14.7698H37.8805ZM39.4781 11.8274C39.4781 12.1773 39.5266 12.4825 39.6237 12.7431C39.7208 13.0036 39.8613 13.2067 40.0452 13.3522C40.2291 13.4953 40.4526 13.5668 40.7156 13.5668C40.9813 13.5668 41.206 13.494 41.3899 13.3484C41.5738 13.2003 41.7131 12.9959 41.8076 12.7354C41.9046 12.4723 41.9531 12.1696 41.9531 11.8274C41.9531 11.4877 41.9059 11.1888 41.8114 10.9309C41.7169 10.6729 41.5777 10.4711 41.3938 10.3255C41.2099 10.1799 40.9838 10.1071 40.7156 10.1071C40.45 10.1071 40.2252 10.1774 40.0413 10.3178C39.86 10.4583 39.7208 10.6576 39.6237 10.9155C39.5266 11.1735 39.4781 11.4775 39.4781 11.8274ZM44.7088 14.7698V8.88493H46.341V14.7698H44.7088ZM45.5287 8.12633C45.2861 8.12633 45.0779 8.04587 44.9042 7.88496C44.7331 7.72149 44.6475 7.52609 44.6475 7.29877C44.6475 7.074 44.7331 6.88115 44.9042 6.72024C45.0779 6.55677 45.2861 6.47503 45.5287 6.47503C45.7714 6.47503 45.9783 6.55677 46.1494 6.72024C46.3231 6.88115 46.4099 7.074 46.4099 7.29877C46.4099 7.52609 46.3231 7.72149 46.1494 7.88496C45.9783 8.04587 45.7714 8.12633 45.5287 8.12633ZM49.2805 11.3676V14.7698H47.6484V8.88493H49.2039V9.92322H49.2729C49.4031 9.58095 49.6215 9.31021 49.928 9.11098C50.2345 8.9092 50.6062 8.80831 51.043 8.80831C51.4516 8.80831 51.8079 8.8977 52.1119 9.0765C52.4158 9.25529 52.6521 9.51071 52.8207 9.84276C52.9893 10.1723 53.0736 10.5656 53.0736 11.0228V14.7698H51.4414V11.314C51.444 10.9538 51.352 10.6729 51.1656 10.4711C50.9791 10.2668 50.7224 10.1646 50.3955 10.1646C50.1758 10.1646 49.9817 10.2118 49.8131 10.3064C49.6471 10.4009 49.5168 10.5388 49.4223 10.7201C49.3304 10.8989 49.2831 11.1148 49.2805 11.3676Z" fill="white"/>
<defs>
<linearGradient id="paint0_linear_2376_1251" x1="4.425" y1="12.1161" x2="20.5971" y2="3.26361" gradientUnits="userSpaceOnUse">
<stop stop-color="white" stop-opacity="0.32"/>
<stop offset="1" stop-color="white" stop-opacity="0.1"/>
</linearGradient>
<clipPath id="clip0_2376_1251">
<rect width="11.6881" height="11.6881" fill="white" transform="translate(5 4.9258)"/>
</clipPath>
</defs>
</svg>
