<svg width="32" height="32" viewBox="0 0 32 32" fill="none" xmlns="http://www.w3.org/2000/svg">
<path d="M14.6616 17.7497H16.5836V15.8283H15.6226V13.907H20.4277V18.7105L16.5836 22.5533V18.7104L14.6616 20.6317H12.7396C12.2064 20.6317 11.7535 20.4441 11.3806 20.0688C11.0051 19.6936 10.8174 19.2407 10.8174 18.7103V11.0248C10.8174 10.4944 11.0051 10.0429 11.3806 9.67008C11.7559 9.29242 12.2089 9.10353 12.7396 9.10353H20.6848C21.098 9.10353 21.4942 8.93951 21.7863 8.64748L25.3046 5.13049C25.722 4.71332 25.4264 4 24.8362 4H9.40592C8.46562 4 7.66301 4.33478 6.99783 5.0041C6.33265 5.66467 6 6.46488 6 7.40473V21.0236C6 21.9636 6.33265 22.7658 6.99783 23.4309C7.65863 24.0959 8.46124 24.4284 9.40592 24.4284H12.8118L14.6751 24.4465C15.5295 24.4547 16.2178 25.1496 16.2178 26.0038V27.8333L22.5734 21.4799C22.8655 21.1879 23.0297 20.7917 23.0297 20.3787V14.0693C23.0297 13.2092 22.3323 12.512 21.4719 12.512H14.6617L14.6616 17.7497Z" fill="#88EF56"/>
</svg>
