<svg width="256" height="256" viewBox="0 0 256 256" fill="none" xmlns="http://www.w3.org/2000/svg">
<path d="M117.285 144.651H135.323V126.674H126.305V108.696H171.398V153.641L135.323 189.597V153.64L117.285 171.617H99.2482C94.2451 171.617 89.9943 169.861 86.4946 166.35C82.9714 162.84 81.2098 158.602 81.2098 153.639V81.729C81.2098 76.766 82.9714 72.541 86.4946 69.053C90.0166 65.5193 94.2686 63.7519 99.2482 63.7519H173.811C177.689 63.7519 181.407 62.2172 184.148 59.4848L217.167 26.5776C221.083 22.6743 218.31 16 212.77 16H67.9633C59.1389 16 51.6067 19.1325 45.3642 25.395C39.1218 31.5757 36 39.063 36 47.8568V175.284C36 184.079 39.1218 191.585 45.3642 197.808C51.5656 204.031 59.0978 207.141 67.9633 207.141H99.9265L117.412 207.31C125.43 207.388 131.89 213.889 131.89 221.881V239L191.535 179.553C194.276 176.821 195.817 173.114 195.817 169.25V110.215C195.817 102.167 189.272 95.6438 181.198 95.6438H117.287L117.285 144.651Z" fill="#88EF56"/>
</svg>
