<svg width="19" height="19" viewBox="0 0 19 19" fill="none" xmlns="http://www.w3.org/2000/svg">
<g clip-path="url(#clip0_2913_806)">
<path fill-rule="evenodd" clip-rule="evenodd" d="M10.1056 5.69525V7.71044C10.5276 7.06762 11.1093 6.54538 11.7937 6.19484C12.4782 5.8443 13.2419 5.67748 14.0101 5.71069C18.1129 5.71069 19 8.27569 19 11.6126V18.4062H15.2V12.3833C15.2 10.9464 14.9102 9.09862 12.673 9.09862C10.5034 9.09862 10.1329 10.6626 10.1329 12.2764V18.4062H6.34481V5.69525H10.1056ZM3.8 2.50087C3.79953 2.87732 3.68795 3.24524 3.47923 3.55853C3.27052 3.87181 2.97396 4.11651 2.62675 4.26194C2.27968 4.4062 1.89753 4.44393 1.52895 4.37034C1.16036 4.29675 0.822003 4.11516 0.556936 3.84869C0.291371 3.58204 0.110572 3.24283 0.037277 2.87371C-0.0360183 2.50459 0.00146238 2.12203 0.145005 1.77416C0.288547 1.42628 0.531743 1.12861 0.844011 0.918578C1.15628 0.708547 1.52367 0.595534 1.9 0.59375C2.15011 0.593748 2.39776 0.643128 2.62875 0.739057C2.85973 0.834986 3.0695 0.975577 3.24603 1.15276C3.42255 1.32995 3.56236 1.54025 3.65742 1.77159C3.75248 2.00293 3.80094 2.25076 3.8 2.50087Z" fill="black"/>
<path d="M3.8 5.70996H0V18.4055H3.8V5.70996Z" fill="black"/>
</g>
<defs>
<clipPath id="clip0_2913_806">
<rect width="19" height="19" fill="white"/>
</clipPath>
</defs>
</svg>
