<svg width="19" height="19" viewBox="0 0 19 19" fill="none" xmlns="http://www.w3.org/2000/svg">
<g clip-path="url(#clip0_2913_798)">
<path d="M9.5 0C4.256 0 0 4.256 0 9.5C0 14.744 4.256 19 9.5 19C14.7345 19 19 14.744 19 9.5C19 4.256 14.7345 0 9.5 0ZM15.7747 4.3795C16.944 5.80376 17.591 7.58512 17.6082 9.4278C17.3413 9.3765 14.6623 8.83025 11.9624 9.17035C11.9007 9.0364 11.8484 8.892 11.7876 8.7476C11.6197 8.35142 11.441 7.95987 11.2518 7.5734C14.2395 6.3574 15.5999 4.6056 15.7747 4.3795ZM9.5 1.40125C11.5615 1.40125 13.4463 2.17455 14.8789 3.44185C14.7345 3.64705 13.508 5.2858 10.6229 6.36785C9.29385 3.92635 7.8204 1.9266 7.59335 1.61785C8.21833 1.47187 8.8582 1.39918 9.5 1.40125ZM6.04865 2.1641C7.1357 3.67121 8.14007 5.23626 9.0573 6.85235C5.2649 7.8622 1.91615 7.84035 1.5561 7.84035C1.81712 6.61209 2.35838 5.46075 3.13767 4.47613C3.91695 3.49152 4.91319 2.70027 6.04865 2.1641ZM1.38035 9.5095V9.2625C1.73185 9.272 5.66675 9.32425 9.7166 8.10825C9.9541 8.5614 10.1698 9.025 10.3759 9.4886C10.2723 9.51995 10.1593 9.55035 10.0567 9.5817C5.8729 10.9307 3.64705 14.6195 3.4618 14.9292C2.12199 13.4421 1.37982 11.5112 1.38035 9.5095ZM9.5 17.6196C7.69633 17.6229 5.94376 17.0207 4.52295 15.9096C4.66735 15.6104 6.31655 12.4365 10.8908 10.8395C10.9117 10.83 10.9221 10.83 10.9421 10.8186C11.7139 12.8092 12.2938 14.869 12.6739 16.9699C11.6715 17.4012 10.5913 17.6224 9.5 17.6196ZM14.0229 16.2279C13.9412 15.7339 13.508 13.3637 12.4459 10.4481C14.992 10.0463 17.2178 10.7055 17.4952 10.7986C17.3218 11.894 16.9239 12.9418 16.3264 13.8761C15.7288 14.8104 14.9446 15.6111 14.0229 16.2279Z" fill="black"/>
</g>
<defs>
<clipPath id="clip0_2913_798">
<rect width="19" height="19" fill="white"/>
</clipPath>
</defs>
</svg>
