<svg width="31" height="31" viewBox="0 0 31 31" fill="none" xmlns="http://www.w3.org/2000/svg">
<mask id="mask0_2322_7786" style="mask-type:luminance" maskUnits="userSpaceOnUse" x="0" y="0" width="31" height="31">
<path d="M30.6818 0H0V30.6818H30.6818V0Z" fill="white"/>
</mask>
<g mask="url(#mask0_2322_7786)">
<path d="M15.3418 0C23.8145 0 30.6827 6.86813 30.6827 15.3409V26.0795C30.6827 27.3001 30.1978 28.4707 29.3347 29.3338C28.4717 30.197 27.3011 30.6818 26.0804 30.6818H16.1088V23.9518C16.1088 22.4161 16.2024 20.8253 17.0078 19.5182C17.5844 18.5816 18.3558 17.7798 19.2695 17.1674C20.1832 16.5551 21.2179 16.1464 22.3035 15.9691L22.5972 15.9216C22.7183 15.8801 22.8235 15.8019 22.8979 15.6978C22.9724 15.5937 23.0124 15.4689 23.0124 15.3409C23.0124 15.2129 22.9724 15.0882 22.8979 14.984C22.8235 14.8799 22.7183 14.8017 22.5972 14.7603L22.3035 14.7127C20.7174 14.4536 19.2527 13.7029 18.1163 12.5664C16.9799 11.43 16.2291 9.96536 15.97 8.3792L15.9224 8.08543C15.8811 7.96431 15.8028 7.85918 15.6987 7.78473C15.5946 7.71028 15.4698 7.67026 15.3418 7.67026C15.2138 7.67026 15.089 7.71028 14.9849 7.78473C14.8808 7.85918 14.8025 7.96431 14.7611 8.08543L14.7135 8.3792C14.5364 9.46478 14.1276 10.4995 13.5153 11.4133C12.9029 12.327 12.1012 13.0983 11.1644 13.6749C9.85738 14.4803 8.26656 14.5739 6.73093 14.5739H0.0192871C0.420452 6.45776 7.12673 0 15.3418 0Z" fill="white"/>
<path d="M0 16.108H6.73006C8.26568 16.108 9.85653 16.2015 11.1636 17.0069C12.1853 17.6365 13.0453 18.4965 13.6749 19.5182C14.4803 20.8253 14.5739 22.4161 14.5739 23.9518V30.6818H4.60227C3.38167 30.6818 2.21107 30.197 1.34798 29.3338C0.484881 28.4707 0 27.3001 0 26.0795V16.108ZM30.6818 1.53409C30.6818 1.94096 30.5202 2.33116 30.2325 2.61886C29.9448 2.90656 29.5546 3.06818 29.1477 3.06818C28.7409 3.06818 28.3507 2.90656 28.0629 2.61886C27.7753 2.33116 27.6136 1.94096 27.6136 1.53409C27.6136 1.12722 27.7753 0.737022 28.0629 0.449325C28.3507 0.161627 28.7409 0 29.1477 0C29.5546 0 29.9448 0.161627 30.2325 0.449325C30.5202 0.737022 30.6818 1.12722 30.6818 1.53409Z" fill="white"/>
</g>
</svg>
