<svg width="190" height="38" viewBox="0 0 190 38" fill="none" xmlns="http://www.w3.org/2000/svg">
<g clip-path="url(#clip0_2944_954)">
<path fill-rule="evenodd" clip-rule="evenodd" d="M24.0117 10.975C22.4666 9.94262 20.6501 9.39157 18.7918 9.39157V-0.00390625C22.5083 -0.00390625 26.1413 1.09816 29.2315 3.16294C32.3217 5.22771 34.7301 8.16247 36.1524 11.596C37.5746 15.0296 37.9468 18.8079 37.2217 22.453C36.4967 26.0981 34.707 29.4463 32.079 32.0742C29.4511 34.7022 26.1028 36.4919 22.4577 37.2169C18.8127 37.942 15.0344 37.5698 11.6008 36.1476C8.16722 34.7254 5.23247 32.3169 3.1677 29.2267C1.10293 26.1366 0.000854492 22.5035 0.000854492 18.7871H9.39633C9.39633 20.6453 9.94738 22.4618 10.9798 24.0069C12.0121 25.552 13.4795 26.7562 15.1964 27.4674C16.9131 28.1785 18.8022 28.3645 20.6248 28.002C22.4473 27.6395 24.1214 26.7446 25.4355 25.4307C26.7494 24.1166 27.6442 22.4426 28.0067 20.62C28.3693 18.7975 28.1833 16.9083 27.4721 15.1916C26.761 13.4748 25.5567 12.0074 24.0117 10.975Z" fill="#88EF56"/>
<path fill-rule="evenodd" clip-rule="evenodd" d="M9.39633 -0.00390128C9.39633 1.22993 9.15331 2.45168 8.68114 3.5916C8.20897 4.7315 7.51691 5.76725 6.64446 6.63971C5.77201 7.51216 4.73626 8.20422 3.59635 8.67639C2.45643 9.14855 1.23468 9.39157 0.000854903 9.39157L0.000854492 18.7871C2.46851 18.7871 4.91201 18.301 7.19185 17.3567C9.47168 16.4123 11.5432 15.0282 13.288 13.2833C15.033 11.5384 16.4171 9.46693 17.3614 7.18709C18.3058 4.90725 18.7918 2.46375 18.7918 -0.00390625L9.39633 -0.00390128Z" fill="#88EF56"/>
<path d="M65.486 17.8047H61.2864C61.2097 17.2614 61.0531 16.7788 60.8166 16.3569C60.5801 15.9286 60.2765 15.5643 59.9058 15.2638C59.535 14.9634 59.1068 14.7333 58.621 14.5735C58.1416 14.4137 57.6206 14.3338 57.0581 14.3338C56.0418 14.3338 55.1565 14.5863 54.4022 15.0913C53.6479 15.5898 53.0631 16.3185 52.6476 17.2773C52.2321 18.2298 52.0244 19.3867 52.0244 20.7482C52.0244 22.1481 52.2321 23.3242 52.6476 24.2766C53.0695 25.229 53.6575 25.9482 54.4118 26.4339C55.1661 26.9197 56.0386 27.1626 57.0293 27.1626C57.5854 27.1626 58.1 27.0891 58.573 26.9421C59.0524 26.7951 59.4775 26.581 59.8482 26.2997C60.219 26.0121 60.5258 25.6637 60.7687 25.2546C61.018 24.8455 61.1906 24.3789 61.2864 23.8548L65.486 23.8739C65.3774 24.7752 65.1057 25.6445 64.671 26.4819C64.2428 27.3129 63.6643 28.0575 62.9356 28.7159C62.2133 29.3679 61.3504 29.8857 60.3468 30.2692C59.3497 30.6463 58.2215 30.8349 56.9622 30.8349C55.2108 30.8349 53.6448 30.4386 52.2641 29.646C50.8898 28.8533 49.8031 27.706 49.0041 26.2038C48.2115 24.7017 47.8152 22.8832 47.8152 20.7482C47.8152 18.6069 48.2179 16.7852 49.0233 15.283C49.8287 13.7809 50.9217 12.6367 52.3024 11.8505C53.6831 11.0579 55.2364 10.6616 56.9622 10.6616C58.1 10.6616 59.1547 10.8214 60.1263 11.141C61.1043 11.4606 61.9704 11.9272 62.7247 12.5408C63.4789 13.1481 64.0926 13.8928 64.5656 14.7749C65.045 15.657 65.3518 16.6669 65.486 17.8047ZM72.3359 10.93V30.5664H68.2514V10.93H72.3359ZM82.127 30.854C80.6376 30.854 79.3496 30.5376 78.263 29.9048C77.1827 29.2656 76.3486 28.3771 75.7605 27.2393C75.1724 26.0952 74.8784 24.7688 74.8784 23.2603C74.8784 21.739 75.1724 20.4094 75.7605 19.2717C76.3486 18.1275 77.1827 17.239 78.263 16.6062C79.3496 15.967 80.6376 15.6474 82.127 15.6474C83.6163 15.6474 84.9011 15.967 85.9814 16.6062C87.068 17.239 87.9054 18.1275 88.4934 19.2717C89.0815 20.4094 89.3756 21.739 89.3756 23.2603C89.3756 24.7688 89.0815 26.0952 88.4934 27.2393C87.9054 28.3771 87.068 29.2656 85.9814 29.9048C84.9011 30.5376 83.6163 30.854 82.127 30.854ZM82.1461 27.69C82.8237 27.69 83.3894 27.4982 83.8432 27.1147C84.2971 26.7248 84.639 26.1942 84.8692 25.5231C85.1057 24.8519 85.2239 24.0881 85.2239 23.2315C85.2239 22.375 85.1057 21.6112 84.8692 20.94C84.639 20.2688 84.2971 19.7383 83.8432 19.3484C83.3894 18.9585 82.8237 18.7635 82.1461 18.7635C81.4622 18.7635 80.8869 18.9585 80.4203 19.3484C79.9601 19.7383 79.6117 20.2688 79.3752 20.94C79.1451 21.6112 79.03 22.375 79.03 23.2315C79.03 24.0881 79.1451 24.8519 79.3752 25.5231C79.6117 26.1942 79.9601 26.7248 80.4203 27.1147C80.8869 27.4982 81.4622 27.69 82.1461 27.69ZM101.341 24.2958V15.8391H105.425V30.5664H101.504V27.8913H101.35C101.018 28.7543 100.465 29.4478 99.6915 29.9719C98.9245 30.4961 97.9881 30.7582 96.8822 30.7582C95.8979 30.7582 95.0317 30.5344 94.2839 30.087C93.536 29.6396 92.9511 29.0036 92.5293 28.179C92.1138 27.3544 91.9028 26.3668 91.8964 25.2163V15.8391H95.981V24.4876C95.9874 25.3569 96.2207 26.044 96.6809 26.549C97.1411 27.054 97.758 27.3065 98.5314 27.3065C99.0236 27.3065 99.4838 27.1946 99.9121 26.9709C100.34 26.7408 100.686 26.402 100.948 25.9545C101.216 25.5071 101.347 24.9542 101.341 24.2958ZM113.984 30.8061C112.866 30.8061 111.852 30.5185 110.945 29.9432C110.043 29.3615 109.328 28.5082 108.797 27.3832C108.273 26.2518 108.011 24.8647 108.011 23.2219C108.011 21.5344 108.282 20.1314 108.826 19.0128C109.369 17.8878 110.091 17.0472 110.993 16.4911C111.9 15.9286 112.894 15.6474 113.975 15.6474C114.799 15.6474 115.486 15.788 116.036 16.0692C116.592 16.3441 117.04 16.6893 117.378 17.1048C117.724 17.5138 117.986 17.9165 118.165 18.3129H118.289V10.93H122.364V30.5664H118.337V28.2077H118.165C117.973 28.6168 117.701 29.0227 117.35 29.4254C117.004 29.8217 116.554 30.1509 115.998 30.413C115.448 30.6751 114.777 30.8061 113.984 30.8061ZM115.279 27.5558C115.937 27.5558 116.493 27.3768 116.947 27.0188C117.407 26.6545 117.759 26.1463 118.002 25.4943C118.251 24.8423 118.376 24.0785 118.376 23.2028C118.376 22.3271 118.254 21.5664 118.011 20.9208C117.768 20.2752 117.417 19.7766 116.956 19.4251C116.496 19.0735 115.937 18.8977 115.279 18.8977C114.607 18.8977 114.042 19.0799 113.581 19.4442C113.121 19.8086 112.773 20.3136 112.536 20.9592C112.3 21.6048 112.182 22.3526 112.182 23.2028C112.182 24.0593 112.3 24.8168 112.536 25.4751C112.779 26.1271 113.128 26.6385 113.581 27.0092C114.042 27.3736 114.607 27.5558 115.279 27.5558ZM125.587 30.5664V15.8391H129.672V30.5664H125.587ZM127.639 13.9407C127.032 13.9407 126.511 13.7393 126.076 13.3366C125.648 12.9276 125.434 12.4386 125.434 11.8697C125.434 11.3072 125.648 10.8246 126.076 10.4219C126.511 10.0128 127.032 9.80824 127.639 9.80824C128.246 9.80824 128.764 10.0128 129.192 10.4219C129.627 10.8246 129.844 11.3072 129.844 11.8697C129.844 12.4386 129.627 12.9276 129.192 13.3366C128.764 13.7393 128.246 13.9407 127.639 13.9407ZM146.539 15.8391L141.39 30.5664H136.788L131.639 15.8391H135.954L139.012 26.3764H139.166L142.215 15.8391H146.539ZM154.674 30.854C153.184 30.854 151.896 30.5376 150.81 29.9048C149.729 29.2656 148.895 28.3771 148.307 27.2393C147.719 26.0952 147.425 24.7688 147.425 23.2603C147.425 21.739 147.719 20.4094 148.307 19.2717C148.895 18.1275 149.729 17.239 150.81 16.6062C151.896 15.967 153.184 15.6474 154.674 15.6474C156.163 15.6474 157.448 15.967 158.528 16.6062C159.615 17.239 160.452 18.1275 161.04 19.2717C161.628 20.4094 161.922 21.739 161.922 23.2603C161.922 24.7688 161.628 26.0952 161.04 27.2393C160.452 28.3771 159.615 29.2656 158.528 29.9048C157.448 30.5376 156.163 30.854 154.674 30.854ZM154.693 27.69C155.37 27.69 155.936 27.4982 156.39 27.1147C156.844 26.7248 157.186 26.1942 157.416 25.5231C157.652 24.8519 157.771 24.0881 157.771 23.2315C157.771 22.375 157.652 21.6112 157.416 20.94C157.186 20.2688 156.844 19.7383 156.39 19.3484C155.936 18.9585 155.37 18.7635 154.693 18.7635C154.009 18.7635 153.434 18.9585 152.967 19.3484C152.507 19.7383 152.158 20.2688 151.922 20.94C151.692 21.6112 151.577 22.375 151.577 23.2315C151.577 24.0881 151.692 24.8519 151.922 25.5231C152.158 26.1942 152.507 26.7248 152.967 27.1147C153.434 27.4982 154.009 27.69 154.693 27.69Z" fill="#88EF56"/>
</g>
<defs>
<clipPath id="clip0_2944_954">
<rect width="189.789" height="37.5819" fill="white"/>
</clipPath>
</defs>
</svg>
