<svg width="32" height="32" viewBox="0 0 32 32" fill="none" xmlns="http://www.w3.org/2000/svg">
<mask id="mask0_2322_7732" style="mask-type:luminance" maskUnits="userSpaceOnUse" x="0" y="0" width="32" height="32">
<path d="M31.9091 0H0V31.9091H31.9091V0Z" fill="white"/>
</mask>
<g mask="url(#mask0_2322_7732)">
<path fill-rule="evenodd" clip-rule="evenodd" d="M10.9406 0.401367C9.14062 0.401367 7.41444 1.09896 6.14165 2.34068L0.00012207 8.3324V11.075C0.00012207 13.0127 0.853241 14.7559 2.21302 15.9668C0.853241 17.1776 0.00012207 18.9208 0.00012207 20.8585V23.6011L6.14165 29.5929C7.41444 30.8346 9.14062 31.5322 10.9406 31.5322C12.9267 31.5322 14.7136 30.6999 15.9547 29.3733C17.1958 30.6999 18.9826 31.5322 20.9687 31.5322C22.7687 31.5322 24.4949 30.8346 25.7677 29.5929L31.9092 23.6011V20.8585C31.9092 18.9208 31.0561 17.1776 29.6963 15.9668C31.0561 14.7559 31.9092 13.0127 31.9092 11.075V8.3324L25.7677 2.34068C24.4949 1.09896 22.7687 0.401367 20.9687 0.401367C18.9826 0.401367 17.1958 1.23368 15.9547 2.56029C14.7136 1.23368 12.9267 0.401367 10.9406 0.401367ZM20.5486 15.9668C20.4721 15.8987 20.3971 15.8287 20.3235 15.757L15.9547 11.4946L11.5858 15.757C11.5123 15.8287 11.4372 15.8987 11.3607 15.9668C11.4372 16.0349 11.5123 16.1048 11.5858 16.1766L15.9547 20.4389L20.3235 16.1766C20.3971 16.1048 20.4721 16.0349 20.5486 15.9668ZM17.7274 23.6011V24.911C17.7274 26.6574 19.1786 28.0732 20.9687 28.0732C21.8283 28.0732 22.6528 27.74 23.2607 27.147L28.3638 22.1683V20.8585C28.3638 19.1121 26.9126 17.6962 25.1225 17.6962C24.2628 17.6962 23.4384 18.0294 22.8305 18.6224L17.7274 23.6011ZM14.182 23.6011L9.0788 18.6224C8.47096 18.0294 7.64651 17.6962 6.78686 17.6962C4.99676 17.6962 3.54557 19.1121 3.54557 20.8585V22.1683L8.64868 27.147C9.25657 27.74 10.081 28.0732 10.9406 28.0732C12.7307 28.0732 14.182 26.6574 14.182 24.911V23.6011ZM14.182 7.02258V8.3324L9.0788 13.3111C8.47096 13.9041 7.64651 14.2373 6.78686 14.2373C4.99676 14.2373 3.54557 12.8215 3.54557 11.075V9.76517L8.64868 4.78654C9.25657 4.19351 10.081 3.86035 10.9406 3.86035C12.7307 3.86035 14.182 5.27613 14.182 7.02258ZM22.8305 13.3111L17.7274 8.3324V7.02258C17.7274 5.27613 19.1786 3.86035 20.9687 3.86035C21.8283 3.86035 22.6528 4.19351 23.2607 4.78654L28.3638 9.76517V11.075C28.3638 12.8215 26.9126 14.2373 25.1225 14.2373C24.2628 14.2373 23.4384 13.9041 22.8305 13.3111Z" fill="white"/>
</g>
</svg>
