<svg width="35" height="35" viewBox="0 0 35 35" fill="none" xmlns="http://www.w3.org/2000/svg">
<path d="M15.9045 2.03666C16.7355 1.55679 17.7594 1.55679 18.5904 2.03666L29.5942 8.39083L21.9854 12.8469C20.8077 11.6643 19.1777 10.9323 17.3769 10.9323C15.5042 10.9323 13.8162 11.724 12.6293 12.991L4.83728 8.42753L15.9045 2.03666Z" fill="white"/>
<path d="M11.1472 15.5633L3.35364 10.999V23.7579L11.1181 19.2106C10.9587 18.6467 10.8734 18.0517 10.8734 17.4367C10.8734 16.7855 10.9691 16.1566 11.1472 15.5633Z" fill="white"/>
<path d="M12.5593 21.8086L4.95947 26.2595L15.9042 32.5796C16.7353 33.0593 17.7591 33.0593 18.5902 32.5796L29.4714 26.2962L22.0577 21.9542C20.8748 23.1803 19.2147 23.9429 17.3766 23.9429C15.4668 23.9429 13.7492 23.1196 12.5593 21.8086Z" fill="white"/>
<path d="M23.5803 19.404L31.1428 23.8331C31.1431 23.8159 31.1433 23.7987 31.1433 23.7815V10.9268L23.5483 15.3747C23.7651 16.0231 23.8825 16.717 23.8825 17.4383C23.8825 18.1234 23.7767 18.7838 23.5803 19.404Z" fill="white"/>
</svg>
