<svg width="182" height="44" viewBox="0 0 182 44" fill="none" xmlns="http://www.w3.org/2000/svg">
<g clip-path="url(#clip0_2943_907)">
<path d="M71.951 13.5474V33.1837H68.365L59.822 20.8247H59.6782V33.1837H55.5266V13.5474H59.1701L67.6459 25.8968H67.8185V13.5474H71.951ZM81.8235 33.4714C80.3342 33.4714 79.0462 33.155 77.9595 32.5221C76.8793 31.8829 76.0451 30.9944 75.457 29.8567C74.869 28.7125 74.5749 27.3861 74.5749 25.8776C74.5749 24.3563 74.869 23.0268 75.457 21.889C76.0451 20.7448 76.8793 19.8563 77.9595 19.2235C79.0462 18.5843 80.3342 18.2647 81.8235 18.2647C83.3128 18.2647 84.5976 18.5843 85.6779 19.2235C86.7645 19.8563 87.6019 20.7448 88.19 21.889C88.778 23.0268 89.0721 24.3563 89.0721 25.8776C89.0721 27.3861 88.778 28.7125 88.19 29.8567C87.6019 30.9944 86.7645 31.8829 85.6779 32.5221C84.5976 33.155 83.3128 33.4714 81.8235 33.4714ZM81.8427 30.3073C82.5202 30.3073 83.0859 30.1155 83.5398 29.732C83.9936 29.3421 84.3356 28.8116 84.5657 28.1404C84.8022 27.4692 84.9204 26.7054 84.9204 25.8488C84.9204 24.9923 84.8022 24.2285 84.5657 23.5573C84.3356 22.8861 83.9936 22.3556 83.5398 21.9657C83.0859 21.5758 82.5202 21.3808 81.8427 21.3808C81.1587 21.3808 80.5834 21.5758 80.1168 21.9657C79.6566 22.3556 79.3082 22.8861 79.0717 23.5573C78.8416 24.2285 78.7266 24.9923 78.7266 25.8488C78.7266 26.7054 78.8416 27.4692 79.0717 28.1404C79.3082 28.8116 79.6566 29.3421 80.1168 29.732C80.5834 30.1155 81.1587 30.3073 81.8427 30.3073ZM104.848 18.4564L99.6997 33.1837H95.0974L89.9486 18.4564H94.2632L97.3218 28.9937H97.4753L100.524 18.4564H104.848ZM110.608 33.4618C109.668 33.4618 108.831 33.2988 108.096 32.9728C107.361 32.6404 106.779 32.1514 106.351 31.5058C105.929 30.8538 105.718 30.042 105.718 29.0704C105.718 28.2523 105.868 27.5651 106.168 27.009C106.469 26.4529 106.878 26.0054 107.396 25.6667C107.913 25.3279 108.502 25.0722 109.16 24.8996C109.825 24.727 110.521 24.6056 111.25 24.5353C112.107 24.4458 112.797 24.3627 113.321 24.286C113.845 24.2029 114.226 24.0814 114.462 23.9216C114.699 23.7618 114.817 23.5253 114.817 23.2121V23.1546C114.817 22.5474 114.625 22.0775 114.242 21.7451C113.864 21.4128 113.328 21.2466 112.631 21.2466C111.896 21.2466 111.311 21.4096 110.876 21.7356C110.442 22.0552 110.154 22.4579 110.013 22.9437L106.236 22.6368C106.427 21.742 106.804 20.9685 107.367 20.3165C107.929 19.6581 108.655 19.1532 109.543 18.8016C110.438 18.4437 111.474 18.2647 112.65 18.2647C113.468 18.2647 114.251 18.3606 114.999 18.5523C115.753 18.7441 116.421 19.0413 117.003 19.444C117.591 19.8467 118.054 20.3645 118.393 20.9973C118.732 21.6237 118.901 22.3748 118.901 23.2505V33.1837H115.028V31.1415H114.913C114.676 31.6017 114.36 32.0076 113.964 32.3591C113.567 32.7043 113.091 32.976 112.535 33.1741C111.979 33.3659 111.336 33.4618 110.608 33.4618ZM111.777 30.6429C112.378 30.6429 112.909 30.5246 113.369 30.2881C113.829 30.0452 114.19 29.7192 114.453 29.3101C114.715 28.901 114.846 28.4376 114.846 27.9199V26.357C114.718 26.4401 114.542 26.5168 114.318 26.5871C114.101 26.651 113.855 26.7118 113.58 26.7693C113.305 26.8204 113.03 26.8684 112.755 26.9131C112.481 26.9515 112.231 26.9866 112.008 27.0186C111.528 27.0889 111.11 27.2008 110.752 27.3542C110.394 27.5076 110.116 27.7153 109.917 27.9774C109.719 28.2331 109.62 28.5527 109.62 28.9362C109.62 29.4923 109.822 29.9174 110.224 30.2114C110.633 30.4991 111.151 30.6429 111.777 30.6429ZM139.338 20.422H135.138C135.061 19.8787 134.905 19.3961 134.668 18.9742C134.432 18.5459 134.128 18.1816 133.757 17.8812C133.387 17.5807 132.958 17.3506 132.473 17.1908C131.993 17.031 131.472 16.9511 130.91 16.9511C129.893 16.9511 129.008 17.2036 128.254 17.7086C127.5 18.2072 126.915 18.9358 126.499 19.8947C126.084 20.8471 125.876 22.004 125.876 23.3655C125.876 24.7654 126.084 25.9415 126.499 26.8939C126.921 27.8464 127.509 28.5655 128.263 29.0513C129.018 29.5371 129.89 29.78 130.881 29.78C131.437 29.78 131.952 29.7064 132.425 29.5594C132.904 29.4124 133.329 29.1983 133.7 28.917C134.071 28.6294 134.377 28.281 134.62 27.8719C134.87 27.4628 135.042 26.9962 135.138 26.4721L139.338 26.4912C139.229 27.3925 138.957 28.2618 138.523 29.0992C138.094 29.9302 137.516 30.6748 136.787 31.3332C136.065 31.9852 135.202 32.503 134.198 32.8865C133.201 33.2636 132.073 33.4522 130.814 33.4522C129.062 33.4522 127.496 33.0559 126.116 32.2633C124.741 31.4706 123.655 30.3233 122.856 28.8211C122.063 27.319 121.667 25.5005 121.667 23.3655C121.667 21.2242 122.07 19.4025 122.875 17.9003C123.68 16.3982 124.773 15.254 126.154 14.4678C127.535 13.6752 129.088 13.2789 130.814 13.2789C131.952 13.2789 133.006 13.4387 133.978 13.7583C134.956 14.0779 135.822 14.5445 136.576 15.1581C137.331 15.7654 137.944 16.5101 138.417 17.3922C138.897 18.2743 139.203 19.2842 139.338 20.422ZM148.757 33.4714C147.268 33.4714 145.98 33.155 144.893 32.5221C143.813 31.8829 142.979 30.9944 142.391 29.8567C141.803 28.7125 141.509 27.3861 141.509 25.8776C141.509 24.3563 141.803 23.0268 142.391 21.889C142.979 20.7448 143.813 19.8563 144.893 19.2235C145.98 18.5843 147.268 18.2647 148.757 18.2647C150.246 18.2647 151.531 18.5843 152.612 19.2235C153.698 19.8563 154.536 20.7448 155.124 21.889C155.712 23.0268 156.006 24.3563 156.006 25.8776C156.006 27.3861 155.712 28.7125 155.124 29.8567C154.536 30.9944 153.698 31.8829 152.612 32.5221C151.531 33.155 150.246 33.4714 148.757 33.4714ZM148.776 30.3073C149.454 30.3073 150.02 30.1155 150.473 29.732C150.927 29.3421 151.269 28.8116 151.499 28.1404C151.736 27.4692 151.854 26.7054 151.854 25.8488C151.854 24.9923 151.736 24.2285 151.499 23.5573C151.269 22.8861 150.927 22.3556 150.473 21.9657C150.02 21.5758 149.454 21.3808 148.776 21.3808C148.092 21.3808 147.517 21.5758 147.05 21.9657C146.59 22.3556 146.242 22.8861 146.005 23.5573C145.775 24.2285 145.66 24.9923 145.66 25.8488C145.66 26.7054 145.775 27.4692 146.005 28.1404C146.242 28.8116 146.59 29.3421 147.05 29.732C147.517 30.1155 148.092 30.3073 148.776 30.3073ZM158.527 33.1837V18.4564H162.486V21.026H162.64C162.908 20.112 163.359 19.4216 163.992 18.955C164.625 18.482 165.353 18.2455 166.178 18.2455C166.382 18.2455 166.603 18.2583 166.839 18.2839C167.076 18.3094 167.284 18.3446 167.463 18.3893V22.0136C167.271 21.9561 167.006 21.905 166.667 21.8602C166.328 21.8155 166.018 21.7931 165.737 21.7931C165.136 21.7931 164.599 21.9241 164.126 22.1862C163.659 22.4419 163.289 22.7998 163.014 23.2601C162.745 23.7203 162.611 24.2508 162.611 24.8517V33.1837H158.527ZM175.466 33.4714C173.951 33.4714 172.647 33.1645 171.554 32.5509C170.467 31.9309 169.63 31.0552 169.042 29.9238C168.453 28.786 168.159 27.4405 168.159 25.8872C168.159 24.3723 168.453 23.0427 169.042 21.8986C169.63 20.7544 170.457 19.8627 171.525 19.2235C172.599 18.5843 173.858 18.2647 175.303 18.2647C176.274 18.2647 177.179 18.4213 178.016 18.7345C178.86 19.0413 179.595 19.5047 180.221 20.1248C180.854 20.7448 181.346 21.5246 181.698 22.4643C182.049 23.3975 182.225 24.4905 182.225 25.7434V26.8652H169.789V24.3339H178.38C178.38 23.7459 178.252 23.2249 177.997 22.7711C177.741 22.3172 177.386 21.9625 176.933 21.7068C176.485 21.4447 175.964 21.3137 175.37 21.3137C174.75 21.3137 174.2 21.4575 173.721 21.7451C173.248 22.0264 172.877 22.4067 172.608 22.8861C172.34 23.3591 172.202 23.8865 172.196 24.4682V26.8748C172.196 27.6035 172.33 28.2331 172.599 28.7636C172.874 29.2942 173.26 29.7032 173.759 29.9909C174.257 30.2785 174.849 30.4224 175.533 30.4224C175.987 30.4224 176.402 30.3584 176.779 30.2306C177.156 30.1027 177.479 29.911 177.748 29.6553C178.016 29.3996 178.221 29.0864 178.361 28.7157L182.139 28.965C181.947 29.8726 181.554 30.6652 180.96 31.3428C180.371 32.014 179.611 32.5381 178.678 32.9152C177.751 33.286 176.68 33.4714 175.466 33.4714Z" fill="white"/>
<path fill-rule="evenodd" clip-rule="evenodd" d="M22.1224 42.913C33.9347 42.913 43.5104 33.3372 43.5104 21.5249C43.5104 9.71262 33.9347 0.136841 22.1224 0.136841C10.31 0.136841 0.734253 9.71262 0.734253 21.5249C0.734253 33.3372 10.31 42.913 22.1224 42.913ZM28.7947 10.1003C29.1195 8.94664 27.9999 8.26445 26.9774 8.9929L12.7042 19.1611C11.5954 19.951 11.7698 21.5249 12.9662 21.5249H16.7248V21.4958H24.05L18.0813 23.6018L15.45 32.9495C15.1252 34.1032 16.2447 34.7854 17.2673 34.0569L31.5405 23.8888C32.6494 23.0988 32.4748 21.5249 31.2785 21.5249H25.5788L28.7947 10.1003Z" fill="white"/>
</g>
<defs>
<clipPath id="clip0_2943_907">
<rect width="181.799" height="43.8456" fill="white"/>
</clipPath>
</defs>
</svg>
