<svg width="68" height="68" viewBox="0 0 68 68" fill="none" xmlns="http://www.w3.org/2000/svg">
<path d="M30.8013 38.3549H35.7712V33.3867H33.2864V28.4185H45.7114V40.8395L35.7712 50.7762V40.8392L30.8013 45.8074H25.8313C24.4528 45.8074 23.2815 45.3222 22.3172 44.3517C21.3465 43.3816 20.8611 42.2105 20.8611 40.8389V20.9658C20.8611 19.5942 21.3465 18.4266 22.3172 17.4626C23.2877 16.486 24.4593 15.9976 25.8313 15.9976H46.3763C47.4447 15.9976 48.4691 15.5735 49.2245 14.8183L58.3224 5.72403C59.4015 4.64531 58.6373 2.80078 57.111 2.80078H17.2111C14.7797 2.80078 12.7043 3.66647 10.9843 5.39721C9.26423 7.10532 8.40405 9.17451 8.40405 11.6048V46.8208C8.40405 49.2514 9.26423 51.3258 10.9843 53.0455C12.693 54.7653 14.7684 55.6248 17.2111 55.6248H26.0182L30.8362 55.6717C33.0455 55.693 34.8253 57.4897 34.8253 59.6985V64.4295L51.2599 48.0007C52.0153 47.2456 52.4399 46.2212 52.4399 45.1531V28.8381C52.4399 26.6141 50.6364 24.8113 48.4116 24.8113H30.8016L30.8013 38.3549Z" fill="#171616"/>
</svg>
