<svg width="180" height="44" viewBox="0 0 180 44" fill="none" xmlns="http://www.w3.org/2000/svg">
<g clip-path="url(#clip0_2944_945)">
<path d="M53.4865 34.0498H49.0376L55.8164 14.4134H61.1665L67.9357 34.0498H63.4868L58.5682 18.9007H58.4147L53.4865 34.0498ZM53.2084 26.3314H63.717V29.5722H53.2084V26.3314ZM79.5317 27.7792V19.3225H83.6162V34.0498H79.6947V31.3747H79.5413C79.2089 32.2377 78.656 32.9312 77.8826 33.4553C77.1155 33.9795 76.1791 34.2416 75.0733 34.2416C74.0889 34.2416 73.2228 34.0178 72.4749 33.5704C71.727 33.123 71.1421 32.4869 70.7203 31.6624C70.3048 30.8378 70.0938 29.8502 70.0875 28.6997V19.3225H74.172V27.971C74.1784 28.8403 74.4117 29.5274 74.8719 30.0324C75.3321 30.5374 75.949 30.7899 76.7224 30.7899C77.2146 30.7899 77.6748 30.678 78.1031 30.4543C78.5313 30.2242 78.8765 29.8854 79.1386 29.4379C79.4071 28.9905 79.5381 28.4376 79.5317 27.7792ZM86.7484 34.0498V19.3225H90.7082V21.8921H90.8616C91.1301 20.9781 91.5807 20.2877 92.2136 19.8211C92.8464 19.3481 93.5751 19.1116 94.3996 19.1116C94.6042 19.1116 94.8247 19.1244 95.0612 19.1499C95.2977 19.1755 95.5055 19.2107 95.6844 19.2554V22.8797C95.4927 22.8222 95.2274 22.771 94.8886 22.7263C94.5498 22.6816 94.2398 22.6592 93.9586 22.6592C93.3577 22.6592 92.8208 22.7902 92.3478 23.0523C91.8812 23.308 91.5104 23.6659 91.2356 24.1262C90.9671 24.5864 90.8329 25.1169 90.8329 25.7178V34.0498H86.7484ZM101.439 34.3279C100.499 34.3279 99.6619 34.1649 98.9268 33.8389C98.1917 33.5065 97.6101 33.0175 97.1818 32.3719C96.7599 31.7199 96.549 30.9081 96.549 29.9365C96.549 29.1183 96.6992 28.4312 96.9996 27.8751C97.3001 27.319 97.7091 26.8715 98.2269 26.5328C98.7447 26.194 99.3327 25.9383 99.9911 25.7657C100.656 25.5931 101.353 25.4717 102.081 25.4014C102.938 25.3119 103.628 25.2288 104.152 25.1521C104.676 25.069 105.057 24.9475 105.293 24.7877C105.53 24.6279 105.648 24.3914 105.648 24.0782V24.0207C105.648 23.4134 105.456 22.9436 105.073 22.6112C104.696 22.2789 104.159 22.1127 103.462 22.1127C102.727 22.1127 102.142 22.2757 101.707 22.6017C101.273 22.9213 100.985 23.324 100.844 23.8097L97.0667 23.5029C97.2585 22.608 97.6356 21.8346 98.1981 21.1826C98.7606 20.5242 99.4861 20.0193 100.375 19.6677C101.27 19.3097 102.305 19.1308 103.481 19.1308C104.299 19.1308 105.082 19.2267 105.83 19.4184C106.585 19.6102 107.252 19.9074 107.834 20.3101C108.422 20.7128 108.886 21.2306 109.224 21.8634C109.563 22.4898 109.733 23.2409 109.733 24.1166V34.0498H105.859V32.0075H105.744C105.507 32.4678 105.191 32.8737 104.795 33.2252C104.398 33.5704 103.922 33.8421 103.366 34.0402C102.81 34.232 102.168 34.3279 101.439 34.3279ZM102.609 31.509C103.21 31.509 103.74 31.3907 104.2 31.1542C104.66 30.9113 105.022 30.5853 105.284 30.1762C105.546 29.7671 105.677 29.3037 105.677 28.786V27.2231C105.549 27.3062 105.373 27.3829 105.149 27.4532C104.932 27.5171 104.686 27.5779 104.411 27.6354C104.136 27.6865 103.861 27.7345 103.587 27.7792C103.312 27.8176 103.062 27.8527 102.839 27.8847C102.359 27.955 101.941 28.0668 101.583 28.2203C101.225 28.3737 100.947 28.5814 100.749 28.8435C100.55 29.0992 100.451 29.4188 100.451 29.8023C100.451 30.3584 100.653 30.7835 101.055 31.0775C101.464 31.3651 101.982 31.509 102.609 31.509ZM116.851 14.4134V34.0498H112.766V14.4134H116.851ZM122.51 39.5725C121.992 39.5725 121.506 39.531 121.052 39.4479C120.605 39.3712 120.234 39.2721 119.94 39.1507L120.86 36.1017C121.34 36.2487 121.771 36.3286 122.155 36.3414C122.545 36.3541 122.88 36.2646 123.162 36.0729C123.449 35.8811 123.682 35.5551 123.861 35.0949L124.101 34.4717L118.818 19.3225H123.114L126.163 30.1379H126.316L129.394 19.3225H133.718L127.994 35.6414C127.719 36.434 127.345 37.1244 126.872 37.7124C126.405 38.3069 125.814 38.7639 125.098 39.0835C124.382 39.4095 123.519 39.5725 122.51 39.5725ZM139.087 19.3225L141.79 24.4713L144.561 19.3225H148.751L144.485 26.6862L148.866 34.0498H144.696L141.79 28.9585L138.933 34.0498H134.714L139.087 26.6862L134.868 19.3225H139.087ZM160.617 34.0498H156.169L162.947 14.4134H168.297L175.067 34.0498H170.618L165.699 18.9007H165.546L160.617 34.0498ZM160.339 26.3314H170.848V29.5722H160.339V26.3314ZM181.447 14.4134V34.0498H177.295V14.4134H181.447Z" fill="#88EF56"/>
<path d="M27.1708 2.11333L22.9649 0.986328L19.4204 14.2144L16.2205 2.27201L12.0144 3.39901L15.4718 16.3019L6.86024 7.6904L3.78122 10.7694L13.227 20.2153L1.46379 17.0633L0.336792 21.2693L13.1895 24.7132C13.0424 24.0785 12.9645 23.4172 12.9645 22.7377C12.9645 17.9279 16.8636 14.0289 21.6733 14.0289C26.4831 14.0289 30.3821 17.9279 30.3821 22.7377C30.3821 23.4128 30.3053 24.07 30.1599 24.701L41.8407 27.8308L42.9676 23.6248L30.0638 20.1672L41.8278 17.0151L40.7007 12.8091L27.7974 16.2665L36.4089 7.65505L33.3298 4.57603L24.0151 13.8908L27.1708 2.11333Z" fill="#88EF56"/>
<path d="M30.1536 24.749C29.793 26.2736 29.0317 27.6432 27.9871 28.7405L36.4493 37.2028L39.5283 34.1237L30.1536 24.749Z" fill="#88EF56"/>
<path d="M27.8963 28.8291C26.8391 29.9089 25.5031 30.7147 24.0049 31.1299L27.0841 42.6217L31.2901 41.4947L27.8963 28.8291Z" fill="#88EF56"/>
<path d="M23.8519 31.1646C23.1567 31.3433 22.4282 31.4382 21.6773 31.4382C20.8729 31.4382 20.094 31.3291 19.3545 31.125L16.2725 42.6273L20.4784 43.7542L23.8519 31.1646Z" fill="#88EF56"/>
<path d="M19.2057 31.0946C17.7303 30.6587 16.4181 29.8426 15.3824 28.7598L6.89941 37.2428L9.97843 40.3218L19.2057 31.0946Z" fill="#88EF56"/>
<path d="M15.3106 28.6735C14.2927 27.5838 13.5513 26.2325 13.1984 24.7314L1.47949 27.8715L2.60648 32.0775L15.3106 28.6735Z" fill="#88EF56"/>
</g>
<defs>
<clipPath id="clip0_2944_945">
<rect width="179.66" height="43.8456" fill="white"/>
</clipPath>
</defs>
</svg>
