<svg width="32" height="32" viewBox="0 0 32 32" fill="none" xmlns="http://www.w3.org/2000/svg">
<path d="M20.7984 18.4965V22.5492H10.5609C10.2865 22.5492 10.0332 22.5281 9.7799 22.4859C9.73771 22.4859 9.71661 22.4648 9.67433 22.4648C9.1044 22.3381 8.57675 22.1059 8.11238 21.7682C7.07809 21.0083 6.40259 19.784 6.40259 18.412V4.375C8.45009 5.53596 9.7799 7.75231 9.7799 10.1798V16.8078C9.7799 18.1165 10.8353 19.1719 12.144 19.1719H19.1309C19.7852 19.1719 20.3762 18.9185 20.7984 18.4965Z" fill="white"/>
<path d="M24.894 4.35645V12.1876C24.1763 11.1111 23.0365 10.33 21.6856 10.0768C21.6222 10.0768 21.58 10.0557 21.5167 10.0557C21.5589 7.67038 22.8676 5.5174 24.894 4.35645Z" fill="white"/>
<path d="M24.8936 15.0157V29.0316C22.8461 27.8706 21.5163 25.6543 21.5163 23.2268V16.5988C21.5163 15.2901 20.4609 14.2347 19.1522 14.2347H12.1653C11.511 14.2347 10.9411 14.4881 10.4978 14.9101V10.8574H20.7353C21.0097 10.8574 21.263 10.8785 21.5163 10.9207C23.4371 11.3007 24.8936 12.9893 24.8936 15.0157Z" fill="white"/>
<path d="M9.77978 23.3542C9.73759 25.7394 8.42887 27.8925 6.40247 29.0324V21.2012C6.71907 21.6867 7.12016 22.1089 7.60562 22.4466C8.17555 22.8688 8.80885 23.1432 9.48426 23.291H9.50536C9.54764 23.291 9.56873 23.312 9.61093 23.312C9.67421 23.3331 9.73759 23.3331 9.77978 23.3542Z" fill="white"/>
</svg>
