<svg width="180" height="44" viewBox="0 0 180 44" fill="none" xmlns="http://www.w3.org/2000/svg">
<g clip-path="url(#clip0_2943_886)">
<path d="M53.4864 34.0502H49.0375L55.8163 14.4138H61.1664L67.9356 34.0502H63.4867L58.568 18.901H58.4146L53.4864 34.0502ZM53.2083 26.3318H63.7168V29.5725H53.2083V26.3318ZM79.5316 27.7796V19.3229H83.6161V34.0502H79.6946V31.3751H79.5412C79.2088 32.238 78.6559 32.9316 77.8824 33.4557C77.1154 33.9799 76.179 34.2419 75.0731 34.2419C74.0888 34.2419 73.2226 34.0182 72.4748 33.5708C71.7269 33.1233 71.142 32.4873 70.7201 31.6627C70.3047 30.8382 70.0937 29.8506 70.0873 28.7V19.3229H74.1719V27.9713C74.1782 28.8407 74.4116 29.5278 74.8718 30.0328C75.332 30.5377 75.9488 30.7902 76.7223 30.7902C77.2145 30.7902 77.6747 30.6784 78.103 30.4546C78.5312 30.2245 78.8764 29.8858 79.1385 29.4383C79.4069 28.9909 79.538 28.438 79.5316 27.7796ZM86.7482 34.0502V19.3229H90.7081V21.8925H90.8615C91.13 20.9784 91.5806 20.2881 92.2134 19.8215C92.8462 19.3485 93.5749 19.112 94.3995 19.112C94.6041 19.112 94.8246 19.1247 95.0611 19.1503C95.2976 19.1759 95.5053 19.211 95.6843 19.2558V22.8801C95.4925 22.8225 95.2273 22.7714 94.8885 22.7267C94.5497 22.6819 94.2397 22.6595 93.9585 22.6595C93.3576 22.6595 92.8207 22.7906 92.3477 23.0527C91.881 23.3083 91.5103 23.6663 91.2354 24.1265C90.967 24.5867 90.8327 25.1173 90.8327 25.7181V34.0502H86.7482ZM101.439 34.3282C100.499 34.3282 99.6618 34.1652 98.9267 33.8392C98.1916 33.5068 97.6099 33.0179 97.1817 32.3723C96.7598 31.7203 96.5489 30.9085 96.5489 29.9369C96.5489 29.1187 96.6991 28.4316 96.9995 27.8755C97.2999 27.3193 97.709 26.8719 98.2268 26.5331C98.7445 26.1943 99.3326 25.9387 99.991 25.7661C100.656 25.5935 101.352 25.472 102.081 25.4017C102.938 25.3122 103.628 25.2291 104.152 25.1524C104.676 25.0693 105.057 24.9479 105.293 24.7881C105.53 24.6283 105.648 24.3918 105.648 24.0786V24.0211C105.648 23.4138 105.456 22.944 105.073 22.6116C104.696 22.2792 104.159 22.113 103.462 22.113C102.727 22.113 102.142 22.276 101.707 22.602C101.273 22.9216 100.985 23.3243 100.844 23.8101L97.0666 23.5033C97.2584 22.6084 97.6355 21.835 98.198 21.183C98.7605 20.5246 99.486 20.0196 100.375 19.6681C101.269 19.3101 102.305 19.1311 103.481 19.1311C104.299 19.1311 105.082 19.227 105.83 19.4188C106.584 19.6105 107.252 19.9078 107.834 20.3105C108.422 20.7132 108.886 21.2309 109.224 21.8637C109.563 22.4902 109.732 23.2412 109.732 24.1169V34.0502H105.859V32.0079H105.744C105.507 32.4681 105.191 32.874 104.795 33.2256C104.398 33.5708 103.922 33.8424 103.366 34.0406C102.81 34.2323 102.167 34.3282 101.439 34.3282ZM102.609 31.5093C103.209 31.5093 103.74 31.3911 104.2 31.1546C104.66 30.9117 105.022 30.5857 105.284 30.1766C105.546 29.7675 105.677 29.3041 105.677 28.7863V27.2235C105.549 27.3066 105.373 27.3833 105.149 27.4536C104.932 27.5175 104.686 27.5782 104.411 27.6358C104.136 27.6869 103.861 27.7348 103.587 27.7796C103.312 27.8179 103.062 27.8531 102.839 27.885C102.359 27.9554 101.941 28.0672 101.583 28.2206C101.225 28.374 100.947 28.5818 100.748 28.8438C100.55 29.0995 100.451 29.4191 100.451 29.8027C100.451 30.3588 100.653 30.7838 101.055 31.0779C101.464 31.3655 101.982 31.5093 102.609 31.5093ZM116.851 14.4138V34.0502H112.766V14.4138H116.851ZM122.509 39.5729C121.992 39.5729 121.506 39.5314 121.052 39.4483C120.605 39.3715 120.234 39.2725 119.94 39.151L120.86 36.102C121.34 36.249 121.771 36.3289 122.155 36.3417C122.545 36.3545 122.88 36.265 123.161 36.0733C123.449 35.8815 123.682 35.5555 123.861 35.0953L124.101 34.472L118.818 19.3229H123.113L126.162 30.1382H126.316L129.394 19.3229H133.718L127.994 35.6418C127.719 36.4344 127.345 37.1247 126.872 37.7128C126.405 38.3073 125.814 38.7643 125.098 39.0839C124.382 39.4099 123.519 39.5729 122.509 39.5729ZM139.086 19.3229L141.79 24.4717L144.561 19.3229H148.751L144.485 26.6865L148.866 34.0502H144.695L141.79 28.9589L138.933 34.0502H134.714L139.086 26.6865L134.868 19.3229H139.086ZM160.617 34.0502H156.168L162.947 14.4138H168.297L175.067 34.0502H170.618L165.699 18.901H165.546L160.617 34.0502ZM160.339 26.3318H170.848V29.5725H160.339V26.3318ZM181.447 14.4138V34.0502H177.295V14.4138H181.447Z" fill="white"/>
<path d="M27.1707 2.11321L22.9647 0.986206L19.4203 14.2143L16.2203 2.27189L12.0143 3.39889L15.4716 16.3018L6.86012 7.69028L3.7811 10.7693L13.2269 20.2151L1.46367 17.0632L0.33667 21.2691L13.1894 24.713C13.0423 24.0784 12.9644 23.417 12.9644 22.7375C12.9644 17.9278 16.8635 14.0287 21.6732 14.0287C26.483 14.0287 30.382 17.9278 30.382 22.7375C30.382 23.4126 30.3051 24.0699 30.1598 24.7009L41.8406 27.8307L42.9675 23.6247L30.0637 20.1671L41.8276 17.0149L40.7006 12.809L27.7973 16.2664L36.4088 7.65492L33.3297 4.57591L24.015 13.8907L27.1707 2.11321Z" fill="white"/>
<path d="M30.1536 24.7489C29.793 26.2734 29.0317 27.643 27.9871 28.7403L36.4493 37.2026L39.5283 34.1236L30.1536 24.7489Z" fill="white"/>
<path d="M27.8963 28.829C26.8391 29.9088 25.5031 30.7146 24.0049 31.1298L27.0841 42.6216L31.2901 41.4946L27.8963 28.829Z" fill="white"/>
<path d="M23.8519 31.1642C23.1567 31.3429 22.4282 31.4379 21.6773 31.4379C20.8729 31.4379 20.094 31.3288 19.3545 31.1246L16.2725 42.6269L20.4784 43.7539L23.8519 31.1642Z" fill="white"/>
<path d="M19.2057 31.0946C17.7303 30.6587 16.4181 29.8426 15.3824 28.7598L6.89941 37.2428L9.97843 40.3218L19.2057 31.0946Z" fill="white"/>
<path d="M15.3106 28.6736C14.2927 27.5839 13.5513 26.2326 13.1984 24.7316L1.47949 27.8717L2.60648 32.0776L15.3106 28.6736Z" fill="white"/>
</g>
<defs>
<clipPath id="clip0_2943_886">
<rect width="179.66" height="43.8456" fill="white"/>
</clipPath>
</defs>
</svg>
