<svg width="177" height="44" viewBox="0 0 177 44" fill="none" xmlns="http://www.w3.org/2000/svg">
<g clip-path="url(#clip0_2943_910)">
<path d="M1.01086 32.5052L1.01087 10.8271L11.8499 16.8488V26.5437L20.5211 31.4213L29.1923 26.5437V16.8488L40.0314 10.8271V32.5052L20.5211 43.3441L1.01086 32.5052Z" fill="white"/>
<path fill-rule="evenodd" clip-rule="evenodd" d="M6.43038 13.8483L1.01086 10.8374L20.5211 -0.00158691L40.0314 10.8374L34.6118 13.8483V29.8057L20.5211 37.935L6.43037 29.8057L6.43038 13.8483ZM34.0247 14.1745L29.1923 16.8591V16.7989L20.5211 11.9213L11.8499 16.7989V16.8591L7.01748 14.1745V29.4722L20.5211 37.2628L34.0247 29.4722V14.1745Z" fill="url(#paint0_linear_2943_910)"/>
<path d="M53.7175 34.1122V14.4758H61.5797C63.0243 14.4758 64.2292 14.69 65.1944 15.1182C66.1596 15.5465 66.8851 16.1409 67.3709 16.9016C67.8567 17.6559 68.0996 18.5252 68.0996 19.5096C68.0996 20.2766 67.9462 20.951 67.6394 21.5326C67.3326 22.1079 66.9107 22.5809 66.3738 22.9517C65.8432 23.316 65.236 23.5749 64.552 23.7283V23.9201C65.2999 23.952 65.9998 24.163 66.6518 24.5529C67.3102 24.9428 67.8439 25.4893 68.253 26.1924C68.6621 26.8892 68.8667 27.7201 68.8667 28.6853C68.8667 29.7272 68.6078 30.6573 68.09 31.4755C67.5787 32.2873 66.8212 32.9297 65.8176 33.4027C64.8141 33.8757 63.5772 34.1122 62.1071 34.1122H53.7175ZM57.8691 30.718H61.2537C62.4107 30.718 63.2544 30.4975 63.785 30.0564C64.3155 29.609 64.5808 29.0145 64.5808 28.273C64.5808 27.7297 64.4498 27.2503 64.1877 26.8348C63.9256 26.4194 63.5517 26.0934 63.0659 25.8569C62.5865 25.6203 62.0144 25.5021 61.3496 25.5021H57.8691V30.718ZM57.8691 22.6928H60.9469C61.5158 22.6928 62.0208 22.5937 62.4618 22.3956C62.9093 22.191 63.2608 21.9034 63.5165 21.5326C63.7786 21.1619 63.9096 20.7177 63.9096 20.1999C63.9096 19.4904 63.6571 18.9183 63.1522 18.4836C62.6536 18.049 61.9441 17.8316 61.0236 17.8316H57.8691V22.6928ZM75.4409 14.4758V34.1122H71.3564V14.4758H75.4409ZM88.0221 27.8416V19.3849H92.1066V34.1122H88.1851V31.4371H88.0317C87.6993 32.3 87.1464 32.9936 86.3729 33.5177C85.6059 34.0419 84.6695 34.3039 83.5636 34.3039C82.5793 34.3039 81.7131 34.0802 80.9653 33.6328C80.2174 33.1853 79.6325 32.5493 79.2106 31.7248C78.7952 30.9002 78.5842 29.9126 78.5778 28.762V19.3849H82.6623V28.0333C82.6687 28.9027 82.9021 29.5898 83.3623 30.0948C83.8225 30.5998 84.4393 30.8522 85.2128 30.8522C85.705 30.8522 86.1652 30.7404 86.5935 30.5167C87.0217 30.2865 87.3669 29.9478 87.629 29.5003C87.8974 29.0529 88.0285 28.5 88.0221 27.8416ZM101.95 34.3998C100.435 34.3998 99.1315 34.093 98.0384 33.4794C96.9518 32.8593 96.1144 31.9836 95.5264 30.8522C94.9383 29.7145 94.6443 28.3689 94.6443 26.8157C94.6443 25.3007 94.9383 23.9712 95.5264 22.827C96.1144 21.6829 96.9422 20.7912 98.0097 20.152C99.0835 19.5128 100.343 19.1931 101.787 19.1931C102.759 19.1931 103.663 19.3498 104.501 19.663C105.345 19.9698 106.08 20.4332 106.706 21.0532C107.339 21.6733 107.831 22.4531 108.183 23.3927C108.534 24.326 108.71 25.419 108.71 26.6718V27.7936H96.2742V25.2624H104.865C104.865 24.6743 104.737 24.1534 104.482 23.6995C104.226 23.2457 103.871 22.8909 103.417 22.6353C102.97 22.3732 102.449 22.2422 101.855 22.2422C101.234 22.2422 100.685 22.386 100.205 22.6736C99.7323 22.9549 99.3616 23.3352 99.0931 23.8146C98.8247 24.2876 98.6872 24.815 98.6808 25.3966V27.8032C98.6808 28.5319 98.8151 29.1615 99.0835 29.6921C99.3584 30.2226 99.7451 30.6317 100.244 30.9194C100.742 31.207 101.334 31.3508 102.017 31.3508C102.471 31.3508 102.887 31.2869 103.264 31.1591C103.641 31.0312 103.964 30.8395 104.232 30.5838C104.501 30.3281 104.705 30.0149 104.846 29.6441L108.624 29.8934C108.432 30.8011 108.039 31.5937 107.444 32.2713C106.856 32.9424 106.096 33.4666 105.162 33.8437C104.236 34.2145 103.165 34.3998 101.95 34.3998ZM111.317 34.1122V14.4758H119.064C120.554 14.4758 121.822 14.7603 122.871 15.3292C123.919 15.8917 124.718 16.6747 125.268 17.6782C125.824 18.6754 126.102 19.826 126.102 21.1299C126.102 22.4339 125.821 23.5845 125.258 24.5816C124.696 25.5788 123.881 26.3554 122.813 26.9115C121.752 27.4677 120.467 27.7457 118.959 27.7457H114.021V24.4186H118.288C119.087 24.4186 119.745 24.2812 120.263 24.0064C120.787 23.7251 121.177 23.3384 121.433 22.8462C121.695 22.3476 121.826 21.7755 121.826 21.1299C121.826 20.4779 121.695 19.9091 121.433 19.4233C121.177 18.9311 120.787 18.5507 120.263 18.2823C119.739 18.0074 119.074 17.87 118.269 17.87H115.469V34.1122H111.317ZM135.061 34.3998C133.546 34.3998 132.242 34.093 131.149 33.4794C130.063 32.8593 129.225 31.9836 128.637 30.8522C128.049 29.7145 127.755 28.3689 127.755 26.8157C127.755 25.3007 128.049 23.9712 128.637 22.827C129.225 21.6829 130.053 20.7912 131.121 20.152C132.194 19.5128 133.454 19.1931 134.898 19.1931C135.87 19.1931 136.774 19.3498 137.612 19.663C138.455 19.9698 139.191 20.4332 139.817 21.0532C140.45 21.6733 140.942 22.4531 141.293 23.3927C141.645 24.326 141.821 25.419 141.821 26.6718V27.7936H129.385V25.2624H137.976C137.976 24.6743 137.848 24.1534 137.592 23.6995C137.337 23.2457 136.982 22.8909 136.528 22.6353C136.081 22.3732 135.56 22.2422 134.965 22.2422C134.345 22.2422 133.796 22.386 133.316 22.6736C132.843 22.9549 132.472 23.3352 132.204 23.8146C131.936 24.2876 131.798 24.815 131.792 25.3966V27.8032C131.792 28.5319 131.926 29.1615 132.194 29.6921C132.469 30.2226 132.856 30.6317 133.355 30.9194C133.853 31.207 134.444 31.3508 135.128 31.3508C135.582 31.3508 135.998 31.2869 136.375 31.1591C136.752 31.0312 137.075 30.8395 137.343 30.5838C137.612 30.3281 137.816 30.0149 137.957 29.6441L141.735 29.8934C141.543 30.8011 141.15 31.5937 140.555 32.2713C139.967 32.9424 139.206 33.4666 138.273 33.8437C137.346 34.2145 136.276 34.3998 135.061 34.3998ZM148.551 34.3902C147.611 34.3902 146.774 34.2272 146.039 33.9012C145.304 33.5689 144.722 33.0799 144.294 32.4343C143.872 31.7823 143.661 30.9705 143.661 29.9989C143.661 29.1807 143.811 28.4936 144.112 27.9375C144.412 27.3814 144.821 26.9339 145.339 26.5951C145.857 26.2564 146.445 26.0007 147.103 25.8281C147.768 25.6555 148.465 25.5341 149.193 25.4637C150.05 25.3743 150.74 25.2912 151.264 25.2145C151.788 25.1314 152.169 25.0099 152.405 24.8501C152.642 24.6903 152.76 24.4538 152.76 24.1406V24.0831C152.76 23.4758 152.568 23.006 152.185 22.6736C151.808 22.3412 151.271 22.175 150.574 22.175C149.839 22.175 149.254 22.338 148.819 22.664C148.385 22.9836 148.097 23.3863 147.956 23.8721L144.179 23.5653C144.37 22.6704 144.748 21.897 145.31 21.245C145.873 20.5866 146.598 20.0816 147.487 19.7301C148.382 19.3721 149.417 19.1931 150.593 19.1931C151.411 19.1931 152.194 19.289 152.942 19.4808C153.696 19.6726 154.364 19.9698 154.946 20.3725C155.534 20.7752 155.998 21.2929 156.336 21.9257C156.675 22.5522 156.845 23.3032 156.845 24.1789V34.1122H152.971V32.0699H152.856C152.619 32.5302 152.303 32.936 151.907 33.2876C151.51 33.6328 151.034 33.9044 150.478 34.1026C149.922 34.2944 149.28 34.3902 148.551 34.3902ZM149.721 31.5713C150.321 31.5713 150.852 31.4531 151.312 31.2166C151.772 30.9737 152.134 30.6477 152.396 30.2386C152.658 29.8295 152.789 29.3661 152.789 28.8483V27.2855C152.661 27.3686 152.485 27.4453 152.261 27.5156C152.044 27.5795 151.798 27.6402 151.523 27.6978C151.248 27.7489 150.973 27.7968 150.699 27.8416C150.424 27.8799 150.174 27.9151 149.951 27.9471C149.471 28.0174 149.053 28.1292 148.695 28.2826C148.337 28.436 148.059 28.6438 147.861 28.9059C147.662 29.1615 147.563 29.4811 147.563 29.8647C147.563 30.4208 147.765 30.8458 148.167 31.1399C148.576 31.4275 149.094 31.5713 149.721 31.5713ZM163.579 29.8743L163.589 24.9748H164.183L168.901 19.3849H173.589L167.252 26.7869H166.283L163.579 29.8743ZM159.878 34.1122V14.4758H163.963V34.1122H159.878ZM169.083 34.1122L164.749 27.6978L167.472 24.8118L173.867 34.1122H169.083Z" fill="white"/>
</g>
<defs>
<linearGradient id="paint0_linear_2943_910" x1="6.43037" y1="8.42874" x2="35.6957" y2="8.42875" gradientUnits="userSpaceOnUse">
<stop stop-color="#DBDBDB"/>
<stop offset="0.5" stop-color="#B0B0B0"/>
<stop offset="1" stop-color="#DBDBDB"/>
</linearGradient>
<clipPath id="clip0_2943_910">
<rect width="176.536" height="43.8456" fill="white"/>
</clipPath>
</defs>
</svg>
