<svg width="182" height="44" viewBox="0 0 182 44" fill="none" xmlns="http://www.w3.org/2000/svg">
<g clip-path="url(#clip0_2944_960)">
<path d="M71.951 13.5472V33.1836H68.365L59.822 20.8246H59.6782V33.1836H55.5266V13.5472H59.1701L67.6459 25.8967H67.8185V13.5472H71.951ZM81.8235 33.4712C80.3342 33.4712 79.0462 33.1548 77.9595 32.522C76.8793 31.8828 76.0451 30.9943 75.457 29.8565C74.869 28.7124 74.5749 27.386 74.5749 25.8775C74.5749 24.3562 74.869 23.0266 75.457 21.8888C76.0451 20.7447 76.8793 19.8562 77.9595 19.2234C79.0462 18.5842 80.3342 18.2646 81.8235 18.2646C83.3128 18.2646 84.5976 18.5842 85.6779 19.2234C86.7645 19.8562 87.6019 20.7447 88.19 21.8888C88.778 23.0266 89.0721 24.3562 89.0721 25.8775C89.0721 27.386 88.778 28.7124 88.19 29.8565C87.6019 30.9943 86.7645 31.8828 85.6779 32.522C84.5976 33.1548 83.3128 33.4712 81.8235 33.4712ZM81.8427 30.3072C82.5202 30.3072 83.0859 30.1154 83.5398 29.7319C83.9936 29.342 84.3356 28.8114 84.5657 28.1403C84.8022 27.4691 84.9204 26.7053 84.9204 25.8487C84.9204 24.9922 84.8022 24.2283 84.5657 23.5572C84.3356 22.886 83.9936 22.3555 83.5398 21.9656C83.0859 21.5756 82.5202 21.3807 81.8427 21.3807C81.1587 21.3807 80.5834 21.5756 80.1168 21.9656C79.6566 22.3555 79.3082 22.886 79.0717 23.5572C78.8416 24.2283 78.7266 24.9922 78.7266 25.8487C78.7266 26.7053 78.8416 27.4691 79.0717 28.1403C79.3082 28.8114 79.6566 29.342 80.1168 29.7319C80.5834 30.1154 81.1587 30.3072 81.8427 30.3072ZM104.848 18.4563L99.6997 33.1836H95.0974L89.9486 18.4563H94.2632L97.3218 28.9936H97.4753L100.524 18.4563H104.848ZM110.608 33.4616C109.668 33.4616 108.831 33.2987 108.096 32.9727C107.361 32.6403 106.779 32.1513 106.351 31.5057C105.929 30.8537 105.718 30.0419 105.718 29.0703C105.718 28.2521 105.868 27.565 106.168 27.0089C106.469 26.4528 106.878 26.0053 107.396 25.6665C107.913 25.3278 108.502 25.0721 109.16 24.8995C109.825 24.7269 110.521 24.6055 111.25 24.5352C112.107 24.4457 112.797 24.3626 113.321 24.2859C113.845 24.2028 114.226 24.0813 114.462 23.9215C114.699 23.7617 114.817 23.5252 114.817 23.212V23.1545C114.817 22.5472 114.625 22.0774 114.242 21.745C113.864 21.4126 113.328 21.2464 112.631 21.2464C111.896 21.2464 111.311 21.4094 110.876 21.7354C110.442 22.055 110.154 22.4577 110.013 22.9435L106.236 22.6367C106.427 21.7418 106.804 20.9684 107.367 20.3164C107.929 19.658 108.655 19.1531 109.543 18.8015C110.438 18.4435 111.474 18.2646 112.65 18.2646C113.468 18.2646 114.251 18.3604 114.999 18.5522C115.753 18.744 116.421 19.0412 117.003 19.4439C117.591 19.8466 118.054 20.3643 118.393 20.9972C118.732 21.6236 118.901 22.3746 118.901 23.2504V33.1836H115.028V31.1413H114.913C114.676 31.6016 114.36 32.0075 113.964 32.359C113.567 32.7042 113.091 32.9759 112.535 33.174C111.979 33.3658 111.336 33.4616 110.608 33.4616ZM111.777 30.6428C112.378 30.6428 112.909 30.5245 113.369 30.288C113.829 30.0451 114.19 29.7191 114.453 29.31C114.715 28.9009 114.846 28.4375 114.846 27.9197V26.3569C114.718 26.44 114.542 26.5167 114.318 26.587C114.101 26.6509 113.855 26.7116 113.58 26.7692C113.305 26.8203 113.03 26.8683 112.755 26.913C112.481 26.9513 112.231 26.9865 112.008 27.0185C111.528 27.0888 111.11 27.2006 110.752 27.354C110.394 27.5075 110.116 27.7152 109.917 27.9773C109.719 28.233 109.62 28.5526 109.62 28.9361C109.62 29.4922 109.822 29.9173 110.224 30.2113C110.633 30.4989 111.151 30.6428 111.777 30.6428ZM139.338 20.4219H135.138C135.061 19.8786 134.905 19.396 134.668 18.9741C134.432 18.5458 134.128 18.1815 133.757 17.881C133.387 17.5806 132.958 17.3505 132.473 17.1907C131.993 17.0309 131.472 16.951 130.91 16.951C129.893 16.951 129.008 17.2035 128.254 17.7085C127.5 18.207 126.915 18.9357 126.499 19.8945C126.084 20.8469 125.876 22.0039 125.876 23.3654C125.876 24.7653 126.084 25.9414 126.499 26.8938C126.921 27.8462 127.509 28.5653 128.263 29.0511C129.018 29.5369 129.89 29.7798 130.881 29.7798C131.437 29.7798 131.952 29.7063 132.425 29.5593C132.904 29.4123 133.329 29.1982 133.7 28.9169C134.071 28.6293 134.377 28.2809 134.62 27.8718C134.87 27.4627 135.042 26.9961 135.138 26.4719L139.338 26.4911C139.229 27.3924 138.957 28.2617 138.523 29.0991C138.094 29.93 137.516 30.6747 136.787 31.3331C136.065 31.9851 135.202 32.5028 134.198 32.8864C133.201 33.2635 132.073 33.4521 130.814 33.4521C129.062 33.4521 127.496 33.0558 126.116 32.2631C124.741 31.4705 123.655 30.3232 122.856 28.821C122.063 27.3189 121.667 25.5004 121.667 23.3654C121.667 21.2241 122.07 19.4023 122.875 17.9002C123.68 16.3981 124.773 15.2539 126.154 14.4677C127.535 13.6751 129.088 13.2788 130.814 13.2788C131.952 13.2788 133.006 13.4386 133.978 13.7582C134.956 14.0778 135.822 14.5444 136.576 15.158C137.331 15.7653 137.944 16.5099 138.417 17.392C138.897 18.2741 139.203 19.2841 139.338 20.4219ZM148.757 33.4712C147.268 33.4712 145.98 33.1548 144.893 32.522C143.813 31.8828 142.979 30.9943 142.391 29.8565C141.803 28.7124 141.509 27.386 141.509 25.8775C141.509 24.3562 141.803 23.0266 142.391 21.8888C142.979 20.7447 143.813 19.8562 144.893 19.2234C145.98 18.5842 147.268 18.2646 148.757 18.2646C150.246 18.2646 151.531 18.5842 152.612 19.2234C153.698 19.8562 154.536 20.7447 155.124 21.8888C155.712 23.0266 156.006 24.3562 156.006 25.8775C156.006 27.386 155.712 28.7124 155.124 29.8565C154.536 30.9943 153.698 31.8828 152.612 32.522C151.531 33.1548 150.246 33.4712 148.757 33.4712ZM148.776 30.3072C149.454 30.3072 150.02 30.1154 150.473 29.7319C150.927 29.342 151.269 28.8114 151.499 28.1403C151.736 27.4691 151.854 26.7053 151.854 25.8487C151.854 24.9922 151.736 24.2283 151.499 23.5572C151.269 22.886 150.927 22.3555 150.473 21.9656C150.02 21.5756 149.454 21.3807 148.776 21.3807C148.092 21.3807 147.517 21.5756 147.05 21.9656C146.59 22.3555 146.242 22.886 146.005 23.5572C145.775 24.2283 145.66 24.9922 145.66 25.8487C145.66 26.7053 145.775 27.4691 146.005 28.1403C146.242 28.8114 146.59 29.342 147.05 29.7319C147.517 30.1154 148.092 30.3072 148.776 30.3072ZM158.527 33.1836V18.4563H162.486V21.0259H162.64C162.908 20.1119 163.359 19.4215 163.992 18.9549C164.625 18.4819 165.353 18.2454 166.178 18.2454C166.382 18.2454 166.603 18.2582 166.839 18.2837C167.076 18.3093 167.284 18.3445 167.463 18.3892V22.0135C167.271 21.956 167.006 21.9048 166.667 21.8601C166.328 21.8153 166.018 21.793 165.737 21.793C165.136 21.793 164.599 21.924 164.126 22.1861C163.659 22.4418 163.289 22.7997 163.014 23.2599C162.745 23.7202 162.611 24.2507 162.611 24.8516V33.1836H158.527ZM175.466 33.4712C173.951 33.4712 172.647 33.1644 171.554 32.5508C170.467 31.9308 169.63 31.055 169.042 29.9237C168.453 28.7859 168.159 27.4403 168.159 25.8871C168.159 24.3722 168.453 23.0426 169.042 21.8984C169.63 20.7543 170.457 19.8626 171.525 19.2234C172.599 18.5842 173.858 18.2646 175.303 18.2646C176.274 18.2646 177.179 18.4212 178.016 18.7344C178.86 19.0412 179.595 19.5046 180.221 20.1246C180.854 20.7447 181.346 21.5245 181.698 22.4641C182.049 23.3974 182.225 24.4904 182.225 25.7433V26.8651H169.789V24.3338H178.38C178.38 23.7457 178.252 23.2248 177.997 22.771C177.741 22.3171 177.386 21.9624 176.933 21.7067C176.485 21.4446 175.964 21.3136 175.37 21.3136C174.75 21.3136 174.2 21.4574 173.721 21.745C173.248 22.0263 172.877 22.4066 172.608 22.886C172.34 23.359 172.202 23.8864 172.196 24.468V26.8746C172.196 27.6033 172.33 28.233 172.599 28.7635C172.874 29.294 173.26 29.7031 173.759 29.9908C174.257 30.2784 174.849 30.4222 175.533 30.4222C175.987 30.4222 176.402 30.3583 176.779 30.2305C177.156 30.1026 177.479 29.9109 177.748 29.6552C178.016 29.3995 178.221 29.0863 178.361 28.7156L182.139 28.9648C181.947 29.8725 181.554 30.6651 180.96 31.3427C180.371 32.0138 179.611 32.538 178.678 32.9151C177.751 33.2859 176.68 33.4712 175.466 33.4712Z" fill="#88EF56"/>
<path fill-rule="evenodd" clip-rule="evenodd" d="M22.1224 42.9128C33.9347 42.9128 43.5104 33.3371 43.5104 21.5248C43.5104 9.71249 33.9347 0.136719 22.1224 0.136719C10.31 0.136719 0.734253 9.71249 0.734253 21.5248C0.734253 33.3371 10.31 42.9128 22.1224 42.9128ZM28.7947 10.1002C29.1195 8.94652 27.9999 8.26433 26.9774 8.99277L12.7042 19.161C11.5954 19.9509 11.7698 21.5248 12.9662 21.5248H16.7248V21.4957H24.05L18.0813 23.6017L15.45 32.9494C15.1252 34.1031 16.2447 34.7853 17.2673 34.0568L31.5405 23.8887C32.6494 23.0987 32.4748 21.5248 31.2785 21.5248H25.5788L28.7947 10.1002Z" fill="#88EF56"/>
</g>
<defs>
<clipPath id="clip0_2944_960">
<rect width="181.799" height="43.8456" fill="white"/>
</clipPath>
</defs>
</svg>
