<svg width="30" height="35" viewBox="0 0 30 35" fill="none" xmlns="http://www.w3.org/2000/svg">
<g clip-path="url(#clip0_2322_7750)">
<path d="M13.7455 34.3636L0.653135 25.5919L4.27504 22.9392L8.49072 25.7727V18.7493L0 24.7479V0L13.0032 9.16365L9.29227 11.756L5.22504 8.89233V15.8253L13.7455 9.82677V34.3636Z" fill="white"/>
<path d="M8.62105 18.7493V25.7727L4.34067 22.9393L0.663159 25.5919L11.0627 32.4646V14.5895L3.16507 20.0454V2.20048L0 0V24.7479L8.62105 18.7493Z" fill="white"/>
<path d="M15.4631 34.3636L28.5258 25.5919L24.9336 22.9392L20.6882 25.7727V18.7493L29.2086 24.7479V0L16.2053 9.16365L19.8866 11.756L23.9835 8.89233V15.8253L15.4631 9.82677V34.3636Z" fill="white"/>
<path d="M20.4992 18.7493V25.7727L24.839 22.9393L28.5112 25.5919L18.041 32.4646V14.5895L25.9923 20.0454V2.20048L29.2092 0V24.7479L20.4992 18.7493Z" fill="white"/>
</g>
<defs>
<clipPath id="clip0_2322_7750">
<rect width="29.4545" height="34.3636" fill="white"/>
</clipPath>
</defs>
</svg>
