<svg width="32" height="32" viewBox="0 0 32 32" fill="none" xmlns="http://www.w3.org/2000/svg">
<g clip-path="url(#clip0_2322_7739)">
<mask id="mask0_2322_7739" style="mask-type:luminance" maskUnits="userSpaceOnUse" x="0" y="0" width="32" height="32">
<path d="M31.9091 0H0V31.9091H31.9091V0Z" fill="white"/>
</mask>
<g mask="url(#mask0_2322_7739)">
<path fill-rule="evenodd" clip-rule="evenodd" d="M20.3865 9.32166C19.0746 8.44513 17.5323 7.97727 15.9545 7.97727V0C19.11 0 22.1947 0.93572 24.8184 2.68883C27.4422 4.44193 29.487 6.9337 30.6946 9.84898C31.9021 12.7643 32.2181 15.9722 31.6025 19.0671C30.9869 22.162 29.4674 25.0048 27.2361 27.2361C25.0048 29.4674 22.162 30.9869 19.0671 31.6025C15.9722 32.2181 12.7643 31.9021 9.84898 30.6946C6.9337 29.487 4.44193 27.4422 2.68883 24.8184C0.93572 22.1947 0 19.11 0 15.9545H7.97727C7.97727 17.5323 8.44513 19.0746 9.32166 20.3865C10.1982 21.6983 11.4441 22.7208 12.9018 23.3246C14.3594 23.9284 15.9634 24.0863 17.5108 23.7785C19.0583 23.4707 20.4796 22.711 21.5954 21.5954C22.711 20.4796 23.4707 19.0583 23.7785 17.5108C24.0863 15.9634 23.9284 14.3594 23.3246 12.9018C22.7208 11.4441 21.6983 10.1982 20.3865 9.32166Z" fill="white"/>
<path fill-rule="evenodd" clip-rule="evenodd" d="M7.97727 3.45516e-06C7.97727 1.04759 7.77093 2.08493 7.37003 3.05277C6.96914 4.02062 6.38153 4.90003 5.6408 5.6408C4.90003 6.38153 4.02062 6.96914 3.05277 7.37003C2.08492 7.77093 1.04759 7.97727 3.48694e-07 7.97727L0 15.9545C2.09518 15.9545 4.16984 15.5419 6.10556 14.7401C8.04124 13.9383 9.80006 12.7631 11.2816 11.2816C12.7631 9.8001 13.9383 8.04124 14.7401 6.10556C15.5419 4.16984 15.9545 2.09518 15.9545 0L7.97727 3.45516e-06Z" fill="white"/>
</g>
</g>
<defs>
<clipPath id="clip0_2322_7739">
<rect width="31.9091" height="31.9091" fill="white"/>
</clipPath>
</defs>
</svg>
