<svg width="36" height="25" viewBox="0 0 36 25" fill="none" xmlns="http://www.w3.org/2000/svg">
<g clip-path="url(#clip0_2322_7766)">
<mask id="mask0_2322_7766" style="mask-type:luminance" maskUnits="userSpaceOnUse" x="-1" y="0" width="37" height="25">
<path d="M35.5905 0H-0.000366211V24.5455H35.5905V0Z" fill="white"/>
</mask>
<g mask="url(#mask0_2322_7766)">
<path fill-rule="evenodd" clip-rule="evenodd" d="M0.926463 7.57613C0.00489995 9.81867 -0.236225 12.2863 0.23362 14.6671C0.703408 17.0477 1.86307 19.2346 3.56586 20.9509C5.26865 22.6672 7.43822 23.8361 9.80005 24.3097C12.162 24.7832 14.6101 24.5401 16.835 23.6113C19.0598 22.6824 20.9614 21.1093 22.2993 19.0911C22.335 19.0373 22.3702 18.9832 22.405 18.9288C22.4295 18.8905 22.4539 18.852 22.4781 18.8133V24.5455H23.4147C25.8229 24.5455 28.177 23.8256 30.1792 22.4771C32.1816 21.1286 33.7421 19.2118 34.6637 16.9693C35.5853 14.7268 35.8264 12.2591 35.3566 9.8784C34.8868 7.49777 33.7272 5.31095 32.0243 3.59461C30.3215 1.87821 28.152 0.709374 25.7901 0.235848C23.4281 -0.237736 20.9801 0.00530843 18.7551 0.934208C16.5304 1.86311 14.6287 3.43615 13.2909 5.45437C13.23 5.54622 13.1704 5.63887 13.1121 5.73217V7.34966e-06H12.1755C9.76727 7.34966e-06 7.41323 0.719804 5.41095 2.06836C3.40866 3.41685 1.84804 5.3336 0.926463 7.57613ZM11.2389 12.2727V1.93111C9.53179 2.08818 7.88519 2.6728 6.45165 3.63823C4.75738 4.77929 3.4369 6.40119 2.6571 8.29865C1.8773 10.1963 1.67328 12.2842 2.07081 14.2987C2.46834 16.3131 3.44959 18.1635 4.8904 19.6157C6.33126 21.0681 8.16702 22.057 10.1656 22.4578C12.1641 22.8584 14.2356 22.6528 16.1181 21.8668C17.9251 21.1124 19.48 19.8559 20.6031 18.246C19.7519 18.6533 18.7999 18.8812 17.7951 18.8812C14.1743 18.8812 11.2389 15.9224 11.2389 12.2727ZM24.3513 22.6143V12.2727C24.3513 8.62306 21.4159 5.66434 17.7951 5.66434C16.7903 5.66434 15.8383 5.89217 14.9871 6.29944C16.1102 4.68957 17.6651 3.43298 19.4721 2.67861C21.3546 1.89261 23.4261 1.68697 25.4246 2.08766C27.4232 2.48834 29.2589 3.4774 30.6999 4.92968C32.1406 6.38201 33.1219 8.23238 33.5193 10.2467C33.9169 12.2613 33.7128 14.3492 32.9331 16.2467C32.1534 18.1442 30.8329 19.7662 29.1386 20.9072C27.705 21.8726 26.0584 22.4573 24.3513 22.6143ZM17.7014 16.9921C15.1894 16.9424 13.1623 14.8991 13.113 12.3671H14.8847C16.2824 12.6883 17.3827 13.7972 17.7014 15.206V16.9921ZM17.8887 16.9921C20.4007 16.9424 22.4279 14.8991 22.4772 12.3671H20.7054C19.3076 12.6883 18.2073 13.7973 17.8887 15.2063V16.9921ZM22.4772 12.1783C22.4279 9.64636 20.4007 7.60304 17.8887 7.55337V9.33914C18.2073 10.748 19.3075 11.8571 20.7052 12.1783H22.4772ZM17.7014 7.55337C15.1895 7.60304 13.1623 9.64636 13.113 12.1783H14.885C16.2826 11.8571 17.3827 10.7482 17.7014 9.33946V7.55337Z" fill="white"/>
</g>
</g>
<defs>
<clipPath id="clip0_2322_7766">
<rect width="35.3864" height="24.6882" fill="white"/>
</clipPath>
</defs>
</svg>
