<svg width="40" height="15" viewBox="0 0 40 15" fill="none" xmlns="http://www.w3.org/2000/svg">
<g clip-path="url(#clip0_2322_7776)">
<mask id="mask0_2322_7776" style="mask-type:luminance" maskUnits="userSpaceOnUse" x="0" y="0" width="40" height="15">
<path d="M39.2727 0H0V14.7273H39.2727V0Z" fill="white"/>
</mask>
<g mask="url(#mask0_2322_7776)">
<path d="M9.3221 0C7.78838 0 6.31749 0.594025 5.23304 1.6514L1.69374 5.10221C0.609257 6.15956 0 7.59369 0 9.08906C0 12.203 2.58905 14.7273 5.78281 14.7273C7.31651 14.7273 8.78739 14.1332 9.87185 13.0759L12.32 10.6889L19.4531 3.73415C19.971 3.22916 20.6735 2.94545 21.406 2.94545C22.6323 2.94545 23.672 3.72473 24.0325 4.80309L26.2836 2.60818C25.2566 1.03991 23.4559 0 21.406 0C19.8723 0 18.4014 0.594025 17.317 1.6514L7.73572 10.9931C7.21779 11.4981 6.51529 11.7818 5.78281 11.7818C4.25749 11.7818 3.02098 10.5763 3.02098 9.08906C3.02098 8.37485 3.31195 7.68997 3.82989 7.18495L7.36917 3.73415C7.88709 3.22916 8.5896 2.94545 9.3221 2.94545C10.5485 2.94545 11.5881 3.72476 11.9485 4.80316L14.1998 2.60824C13.1728 1.03994 11.372 0 9.3221 0Z" fill="white"/>
<path d="M19.8196 10.9931C19.3016 11.4981 18.5992 11.7818 17.8667 11.7818C16.6405 11.7818 15.601 11.0027 15.2404 9.92459L12.9893 12.1194C14.0163 13.6875 15.817 14.7273 17.8667 14.7273C19.4004 14.7273 20.8712 14.1332 21.9557 13.0759L31.5369 3.73415C32.0549 3.22916 32.7574 2.94545 33.4899 2.94545C35.0152 2.94545 36.2517 4.15105 36.2517 5.63824C36.2517 6.35243 35.9607 7.0373 35.4428 7.54233L31.9035 10.9931C31.3856 11.4981 30.6831 11.7818 29.9506 11.7818C28.7244 11.7818 27.6847 11.0026 27.3242 9.92434L25.0731 12.1192C26.1 13.6874 27.9008 14.7273 29.9506 14.7273C31.4843 14.7273 32.9552 14.1332 34.0396 13.0759L37.5789 9.62507C38.6634 8.56771 39.2727 7.13358 39.2727 5.63824C39.2727 2.52432 36.6836 0 33.4899 0C31.9562 0 30.4853 0.594025 29.4009 1.6514L19.8196 10.9931Z" fill="white"/>
</g>
</g>
<defs>
<clipPath id="clip0_2322_7776">
<rect width="39.8864" height="14.5041" fill="white"/>
</clipPath>
</defs>
</svg>
