<svg width="180" height="44" viewBox="0 0 180 44" fill="none" xmlns="http://www.w3.org/2000/svg">
<g clip-path="url(#clip0_2943_899)">
<path d="M61.8874 17.8367V14.4138H78.0145V17.8367H72.0028V34.0502H67.8991V17.8367H61.8874ZM82.6544 34.3282C81.7147 34.3282 80.8774 34.1652 80.1423 33.8392C79.4072 33.5068 78.8255 33.0179 78.3973 32.3723C77.9754 31.7203 77.7644 30.9085 77.7644 29.9369C77.7644 29.1187 77.9147 28.4316 78.2151 27.8755C78.5155 27.3193 78.9246 26.8719 79.4424 26.5331C79.9601 26.1943 80.5482 25.9387 81.2066 25.7661C81.8713 25.5935 82.5681 25.472 83.2968 25.4017C84.1533 25.3122 84.8436 25.2291 85.3678 25.1524C85.8919 25.0693 86.2723 24.9479 86.5088 24.7881C86.7453 24.6283 86.8635 24.3918 86.8635 24.0786V24.0211C86.8635 23.4138 86.6718 22.944 86.2882 22.6116C85.9111 22.2792 85.3742 22.113 84.6774 22.113C83.9424 22.113 83.3575 22.276 82.9228 22.602C82.4882 22.9216 82.2005 23.3243 82.0599 23.8101L78.2822 23.5033C78.474 22.6084 78.8511 21.835 79.4136 21.183C79.9761 20.5246 80.7016 20.0196 81.5901 19.6681C82.485 19.3101 83.5205 19.1311 84.6966 19.1311C85.5148 19.1311 86.2978 19.227 87.0457 19.4188C87.8 19.6105 88.4679 19.9078 89.0496 20.3105C89.6377 20.7132 90.1011 21.2309 90.4399 21.8637C90.7786 22.4902 90.948 23.2412 90.948 24.1169V34.0502H87.0745V32.0079H86.9594C86.7229 32.4681 86.4065 32.874 86.0102 33.2256C85.6139 33.5708 85.1377 33.8424 84.5816 34.0406C84.0254 34.2323 83.383 34.3282 82.6544 34.3282ZM83.8241 31.5093C84.425 31.5093 84.9555 31.3911 85.4157 31.1546C85.8759 30.9117 86.2371 30.5857 86.4992 30.1766C86.7612 29.7675 86.8923 29.3041 86.8923 28.7863V27.2235C86.7644 27.3066 86.5887 27.3833 86.3649 27.4536C86.1476 27.5175 85.9015 27.5782 85.6267 27.6358C85.3518 27.6869 85.0769 27.7348 84.8021 27.7796C84.5272 27.8179 84.2779 27.8531 84.0542 27.885C83.5748 27.9554 83.1561 28.0672 82.7982 28.2206C82.4402 28.374 82.1622 28.5818 81.964 28.8438C81.7659 29.0995 81.6668 29.4191 81.6668 29.8027C81.6668 30.3588 81.8681 30.7838 82.2708 31.0779C82.6799 31.3655 83.1977 31.5093 83.8241 31.5093ZM106.235 23.5225L102.496 23.7526C102.432 23.433 102.295 23.1453 102.084 22.8897C101.873 22.6276 101.595 22.4198 101.25 22.2664C100.911 22.1066 100.505 22.0267 100.032 22.0267C99.3991 22.0267 98.8654 22.161 98.4308 22.4294C97.9961 22.6915 97.7788 23.0431 97.7788 23.4841C97.7788 23.8357 97.9194 24.1329 98.2006 24.3758C98.4819 24.6187 98.9645 24.8137 99.6484 24.9607L102.314 25.4976C103.746 25.7916 104.813 26.2647 105.516 26.9166C106.219 27.5686 106.571 28.4252 106.571 29.4863C106.571 30.4514 106.287 31.2984 105.718 32.0271C105.155 32.7558 104.382 33.3247 103.397 33.7338C102.419 34.1365 101.291 34.3378 100.013 34.3378C98.0632 34.3378 96.5099 33.9319 95.353 33.1201C94.2024 32.3019 93.5281 31.1897 93.3299 29.7835L97.3473 29.5725C97.4687 30.167 97.7628 30.6208 98.2294 30.934C98.696 31.2409 99.2937 31.3943 100.022 31.3943C100.738 31.3943 101.314 31.2568 101.748 30.982C102.189 30.7007 102.413 30.3396 102.419 29.8985C102.413 29.5278 102.256 29.2242 101.95 28.9877C101.643 28.7448 101.17 28.5594 100.531 28.4316L97.9801 27.9234C96.5419 27.6358 95.4712 27.1372 94.7681 26.4277C94.0714 25.7181 93.723 24.8137 93.723 23.7142C93.723 22.7682 93.9787 21.9532 94.4901 21.2693C95.0078 20.5853 95.7333 20.058 96.6665 19.6872C97.6062 19.3165 98.7056 19.1311 99.9648 19.1311C101.825 19.1311 103.289 19.5242 104.356 20.3105C105.43 21.0967 106.056 22.1674 106.235 23.5225ZM112.709 29.8122L112.719 24.9127H113.313L118.03 19.3229H122.719L116.381 26.7249H115.413L112.709 29.8122ZM109.008 34.0502V14.4138H113.093V34.0502H109.008ZM118.213 34.0502L113.879 27.6358L116.602 24.7497L122.997 34.0502H118.213ZM124.511 34.0502V31.6148L131.721 22.6883V22.5828H124.76V19.3229H136.64V21.9788L129.871 30.6848V30.7902H136.889V34.0502H124.511ZM146.167 34.3378C144.653 34.3378 143.349 34.031 142.256 33.4174C141.169 32.7973 140.332 31.9216 139.743 30.7902C139.155 29.6524 138.861 28.3069 138.861 26.7537C138.861 25.2387 139.155 23.9092 139.743 22.765C140.332 21.6208 141.159 20.7291 142.227 20.0899C143.301 19.4507 144.56 19.1311 146.004 19.1311C146.976 19.1311 147.881 19.2877 148.718 19.601C149.562 19.9078 150.297 20.3712 150.923 20.9912C151.556 21.6113 152.048 22.3911 152.4 23.3307C152.751 24.2639 152.927 25.357 152.927 26.6098V27.7316H140.491V25.2004H149.082C149.082 24.6123 148.954 24.0914 148.699 23.6375C148.443 23.1837 148.088 22.8289 147.634 22.5733C147.187 22.3112 146.666 22.1801 146.072 22.1801C145.452 22.1801 144.902 22.324 144.422 22.6116C143.949 22.8929 143.579 23.2732 143.31 23.7526C143.042 24.2256 142.904 24.7529 142.898 25.3346V27.7412C142.898 28.4699 143.032 29.0995 143.301 29.6301C143.575 30.1606 143.962 30.5697 144.461 30.8573C144.959 31.145 145.551 31.2888 146.235 31.2888C146.688 31.2888 147.104 31.2249 147.481 31.097C147.858 30.9692 148.181 30.7774 148.449 30.5218C148.718 30.2661 148.922 29.9529 149.063 29.5821L152.841 29.8314C152.649 30.7391 152.256 31.5317 151.661 32.2093C151.073 32.8804 150.313 33.4046 149.379 33.7817C148.453 34.1524 147.382 34.3378 146.167 34.3378ZM159.542 25.536V34.0502H155.458V19.3229H159.35V21.9213H159.523C159.849 21.0647 160.395 20.3872 161.162 19.8886C161.929 19.3836 162.86 19.1311 163.953 19.1311C164.975 19.1311 165.867 19.3549 166.628 19.8023C167.388 20.2497 167.98 20.8889 168.401 21.7199C168.823 22.5445 169.034 23.5289 169.034 24.673V34.0502H164.95V25.4017C164.956 24.5005 164.726 23.7973 164.259 23.2924C163.793 22.781 163.15 22.5253 162.332 22.5253C161.782 22.5253 161.297 22.6436 160.875 22.8801C160.459 23.1166 160.133 23.4617 159.897 23.9156C159.667 24.363 159.548 24.9032 159.542 25.536Z" fill="white"/>
<path d="M27.1746 2.11321L22.9686 0.986206L19.4242 14.2143L16.2242 2.27189L12.0182 3.39889L15.4755 16.3018L6.86402 7.69028L3.78501 10.7693L13.2308 20.2151L1.46758 17.0632L0.340576 21.2691L13.1933 24.713C13.0462 24.0784 12.9683 23.417 12.9683 22.7375C12.9683 17.9278 16.8674 14.0287 21.6771 14.0287C26.4869 14.0287 30.3859 17.9278 30.3859 22.7375C30.3859 23.4126 30.309 24.0699 30.1637 24.7009L41.8445 27.8307L42.9714 23.6247L30.0676 20.1671L41.8315 17.0149L40.7045 12.809L27.8012 16.2664L36.4127 7.65492L33.3336 4.57591L24.0189 13.8907L27.1746 2.11321Z" fill="white"/>
<path d="M30.153 24.7489C29.7924 26.2734 29.031 27.643 27.9865 28.7403L36.4486 37.2026L39.5277 34.1236L30.153 24.7489Z" fill="white"/>
<path d="M27.8994 28.829C26.8422 29.9088 25.5062 30.7146 24.0079 31.1298L27.0872 42.6216L31.2931 41.4946L27.8994 28.829Z" fill="white"/>
<path d="M23.85 31.1642C23.1549 31.3429 22.4263 31.4379 21.6755 31.4379C20.8711 31.4379 20.0921 31.3288 19.3527 31.1246L16.2706 42.6269L20.4766 43.7539L23.85 31.1642Z" fill="white"/>
<path d="M19.2025 31.0946C17.7271 30.6587 16.4149 29.8426 15.3793 28.7598L6.89624 37.2428L9.97526 40.3218L19.2025 31.0946Z" fill="white"/>
<path d="M15.3118 28.6736C14.294 27.5839 13.5525 26.2326 13.1996 24.7316L1.48071 27.8717L2.6077 32.0776L15.3118 28.6736Z" fill="white"/>
</g>
<defs>
<clipPath id="clip0_2943_899">
<rect width="179.66" height="43.8456" fill="white"/>
</clipPath>
</defs>
</svg>
