<svg width="31" height="35" viewBox="0 0 31 35" fill="none" xmlns="http://www.w3.org/2000/svg">
<mask id="mask0_2322_7759" style="mask-type:luminance" maskUnits="userSpaceOnUse" x="0" y="0" width="31" height="35">
<path d="M30.6818 0H0V34.3636H30.6818V0Z" fill="white"/>
</mask>
<g mask="url(#mask0_2322_7759)">
<path fill-rule="evenodd" clip-rule="evenodd" d="M0 12.8864V26.6318H4.26136C4.70904 26.6318 5.15234 26.7207 5.56599 26.8934C5.97954 27.0661 6.35542 27.3192 6.67191 27.6383C6.98849 27.9574 7.23964 28.3363 7.41099 28.7532C7.58223 29.1701 7.67045 29.6169 7.67045 30.0682V34.3636H17.8977L30.6818 21.4773V7.73182H26.4205C25.9728 7.73182 25.5295 7.64295 25.1158 7.47025C24.7023 7.29756 24.3264 7.04443 24.0099 6.72533C23.6934 6.40624 23.4422 6.0274 23.2708 5.61049C23.0996 5.19358 23.0114 4.74674 23.0114 4.29545V0H12.7841L0 12.8864ZM14.4886 25.7727H8.52273V16.3227L16.1932 8.59091H22.1591V18.0409L14.4886 25.7727Z" fill="white"/>
</g>
</svg>
