<svg width="73" height="73" viewBox="0 0 73 73" fill="none" xmlns="http://www.w3.org/2000/svg">
<mask id="path-1-inside-1_4183_552" fill="white">
<path d="M72.41 36.205C72.41 56.2005 56.2005 72.41 36.205 72.41C16.2095 72.41 0 56.2005 0 36.205C0 16.2095 16.2095 0 36.205 0C56.2005 0 72.41 16.2095 72.41 36.205Z"/>
</mask>
<path d="M72.41 36.205C72.41 56.2005 56.2005 72.41 36.205 72.41C16.2095 72.41 0 56.2005 0 36.205C0 16.2095 16.2095 0 36.205 0C56.2005 0 72.41 16.2095 72.41 36.205Z" fill="#1B1A1A"/>
<path d="M72.41 36.205H70.41C70.41 55.0959 55.0959 70.41 36.205 70.41V72.41V74.41C57.305 74.41 74.41 57.305 74.41 36.205H72.41ZM36.205 72.41V70.41C17.3141 70.41 2 55.0959 2 36.205H0H-2C-2 57.305 15.105 74.41 36.205 74.41V72.41ZM0 36.205H2C2 17.3141 17.3141 2 36.205 2V0V-2C15.105 -2 -2 15.105 -2 36.205H0ZM36.205 0V2C55.0959 2 70.41 17.3141 70.41 36.205H72.41H74.41C74.41 15.105 57.305 -2 36.205 -2V0Z" fill="#6DFF24" fill-opacity="0.04" mask="url(#path-1-inside-1_4183_552)"/>
<g clip-path="url(#paint0_angular_4183_552_clip_path)" data-figma-skip-parse="true" mask="url(#path-1-inside-1_4183_552)"><g transform="matrix(0.0194602 0.0547601 0.0453492 -0.0161158 33.4896 7.69356)"><foreignObject x="-1317.51" y="-1317.51" width="2635.02" height="2635.02"><div xmlns="http://www.w3.org/1999/xhtml" style="background:conic-gradient(from 90deg,rgba(109, 255, 36, 1) 0deg,rgba(109, 255, 36, 0.24) 55.1404deg,rgba(109, 255, 36, 0.02) 124.472deg,rgba(109, 255, 36, 0) 360deg);height:100%;width:100%;opacity:1"></div></foreignObject></g></g><path d="M72.41 36.205H70.41C70.41 55.0959 55.0959 70.41 36.205 70.41V72.41V74.41C57.305 74.41 74.41 57.305 74.41 36.205H72.41ZM36.205 72.41V70.41C17.3141 70.41 2 55.0959 2 36.205H0H-2C-2 57.305 15.105 74.41 36.205 74.41V72.41ZM0 36.205H2C2 17.3141 17.3141 2 36.205 2V0V-2C15.105 -2 -2 15.105 -2 36.205H0ZM36.205 0V2C55.0959 2 70.41 17.3141 70.41 36.205H72.41H74.41C74.41 15.105 57.305 -2 36.205 -2V0Z" data-figma-gradient-fill="{&#34;type&#34;:&#34;GRADIENT_ANGULAR&#34;,&#34;stops&#34;:[{&#34;color&#34;:{&#34;r&#34;:0.42745098471641541,&#34;g&#34;:1.0,&#34;b&#34;:0.14117647707462311,&#34;a&#34;:1.0},&#34;position&#34;:0.0},{&#34;color&#34;:{&#34;r&#34;:0.42745098471641541,&#34;g&#34;:1.0,&#34;b&#34;:0.14117647707462311,&#34;a&#34;:0.23999999463558197},&#34;position&#34;:0.15316791832447052},{&#34;color&#34;:{&#34;r&#34;:0.42745098471641541,&#34;g&#34;:1.0,&#34;b&#34;:0.14117647707462311,&#34;a&#34;:0.019999999552965164},&#34;position&#34;:0.34575578570365906},{&#34;color&#34;:{&#34;r&#34;:0.42745098471641541,&#34;g&#34;:1.0,&#34;b&#34;:0.14117647707462311,&#34;a&#34;:0.0},&#34;position&#34;:1.0}],&#34;stopsVar&#34;:[{&#34;color&#34;:{&#34;r&#34;:0.42745098471641541,&#34;g&#34;:1.0,&#34;b&#34;:0.14117647707462311,&#34;a&#34;:1.0},&#34;position&#34;:0.0},{&#34;color&#34;:{&#34;r&#34;:0.42745098471641541,&#34;g&#34;:1.0,&#34;b&#34;:0.14117647707462311,&#34;a&#34;:0.23999999463558197},&#34;position&#34;:0.15316791832447052},{&#34;color&#34;:{&#34;r&#34;:0.42745098471641541,&#34;g&#34;:1.0,&#34;b&#34;:0.14117647707462311,&#34;a&#34;:0.019999999552965164},&#34;position&#34;:0.34575578570365906},{&#34;color&#34;:{&#34;r&#34;:0.42745098471641541,&#34;g&#34;:1.0,&#34;b&#34;:0.14117647707462311,&#34;a&#34;:0.0},&#34;position&#34;:1.0}],&#34;transform&#34;:{&#34;m00&#34;:38.920375823974609,&#34;m01&#34;:90.698432922363281,&#34;m02&#34;:-31.319776535034180,&#34;m10&#34;:109.52013397216797,&#34;m11&#34;:-32.231674194335938,&#34;m12&#34;:-30.950666427612305},&#34;opacity&#34;:1.0,&#34;blendMode&#34;:&#34;NORMAL&#34;,&#34;visible&#34;:true}" mask="url(#path-1-inside-1_4183_552)"/>
<g clip-path="url(#paint1_angular_4183_552_clip_path)" data-figma-skip-parse="true" mask="url(#path-1-inside-1_4183_552)"><g transform="matrix(-0.0339422 0.0219493 -0.0673781 -0.104193 21.0442 17.4237)"><foreignObject x="-1369.59" y="-1369.59" width="2739.17" height="2739.17"><div xmlns="http://www.w3.org/1999/xhtml" style="background:conic-gradient(from 90deg,rgba(109, 255, 36, 0.6) 0deg,rgba(109, 255, 36, 0) 4.88023deg,rgba(109, 255, 36, 0.05) 208.484deg,rgba(109, 255, 36, 0.3) 304.227deg,rgba(109, 255, 36, 0.6) 360deg);height:100%;width:100%;opacity:1"></div></foreignObject></g></g><path d="M72.41 36.205H70.41C70.41 55.0959 55.0959 70.41 36.205 70.41V72.41V74.41C57.305 74.41 74.41 57.305 74.41 36.205H72.41ZM36.205 72.41V70.41C17.3141 70.41 2 55.0959 2 36.205H0H-2C-2 57.305 15.105 74.41 36.205 74.41V72.41ZM0 36.205H2C2 17.3141 17.3141 2 36.205 2V0V-2C15.105 -2 -2 15.105 -2 36.205H0ZM36.205 0V2C55.0959 2 70.41 17.3141 70.41 36.205H72.41H74.41C74.41 15.105 57.305 -2 36.205 -2V0Z" data-figma-gradient-fill="{&#34;type&#34;:&#34;GRADIENT_ANGULAR&#34;,&#34;stops&#34;:[{&#34;color&#34;:{&#34;r&#34;:0.42745098471641541,&#34;g&#34;:1.0,&#34;b&#34;:0.14117647707462311,&#34;a&#34;:0.0},&#34;position&#34;:0.013556187972426414},{&#34;color&#34;:{&#34;r&#34;:0.42745098471641541,&#34;g&#34;:1.0,&#34;b&#34;:0.14117647707462311,&#34;a&#34;:0.050000000745058060},&#34;position&#34;:0.57912099361419678},{&#34;color&#34;:{&#34;r&#34;:0.42745098471641541,&#34;g&#34;:1.0,&#34;b&#34;:0.14117647707462311,&#34;a&#34;:0.30000001192092896},&#34;position&#34;:0.84507417678833008},{&#34;color&#34;:{&#34;r&#34;:0.42745098471641541,&#34;g&#34;:1.0,&#34;b&#34;:0.14117647707462311,&#34;a&#34;:0.60000002384185791},&#34;position&#34;:1.0}],&#34;stopsVar&#34;:[{&#34;color&#34;:{&#34;r&#34;:0.42745098471641541,&#34;g&#34;:1.0,&#34;b&#34;:0.14117647707462311,&#34;a&#34;:0.0},&#34;position&#34;:0.013556187972426414},{&#34;color&#34;:{&#34;r&#34;:0.42745098471641541,&#34;g&#34;:1.0,&#34;b&#34;:0.14117647707462311,&#34;a&#34;:0.050000000745058060},&#34;position&#34;:0.57912099361419678},{&#34;color&#34;:{&#34;r&#34;:0.42745098471641541,&#34;g&#34;:1.0,&#34;b&#34;:0.14117647707462311,&#34;a&#34;:0.30000001192092896},&#34;position&#34;:0.84507417678833008},{&#34;color&#34;:{&#34;r&#34;:0.42745098471641541,&#34;g&#34;:1.0,&#34;b&#34;:0.14117647707462311,&#34;a&#34;:0.60000002384185791},&#34;position&#34;:1.0}],&#34;transform&#34;:{&#34;m00&#34;:-67.884384155273438,&#34;m01&#34;:-134.7561035156250,&#34;m02&#34;:122.36441040039062,&#34;m10&#34;:43.898571014404297,&#34;m11&#34;:-208.38574218750,&#34;m12&#34;:99.6672363281250},&#34;opacity&#34;:1.0,&#34;blendMode&#34;:&#34;NORMAL&#34;,&#34;visible&#34;:true}" mask="url(#path-1-inside-1_4183_552)"/>
<defs>
<clipPath id="paint0_angular_4183_552_clip_path"><path d="M72.41 36.205H70.41C70.41 55.0959 55.0959 70.41 36.205 70.41V72.41V74.41C57.305 74.41 74.41 57.305 74.41 36.205H72.41ZM36.205 72.41V70.41C17.3141 70.41 2 55.0959 2 36.205H0H-2C-2 57.305 15.105 74.41 36.205 74.41V72.41ZM0 36.205H2C2 17.3141 17.3141 2 36.205 2V0V-2C15.105 -2 -2 15.105 -2 36.205H0ZM36.205 0V2C55.0959 2 70.41 17.3141 70.41 36.205H72.41H74.41C74.41 15.105 57.305 -2 36.205 -2V0Z" mask="url(#path-1-inside-1_4183_552)"/></clipPath><clipPath id="paint1_angular_4183_552_clip_path"><path d="M72.41 36.205H70.41C70.41 55.0959 55.0959 70.41 36.205 70.41V72.41V74.41C57.305 74.41 74.41 57.305 74.41 36.205H72.41ZM36.205 72.41V70.41C17.3141 70.41 2 55.0959 2 36.205H0H-2C-2 57.305 15.105 74.41 36.205 74.41V72.41ZM0 36.205H2C2 17.3141 17.3141 2 36.205 2V0V-2C15.105 -2 -2 15.105 -2 36.205H0ZM36.205 0V2C55.0959 2 70.41 17.3141 70.41 36.205H72.41H74.41C74.41 15.105 57.305 -2 36.205 -2V0Z" mask="url(#path-1-inside-1_4183_552)"/></clipPath></defs>
</svg>
