<svg width="177" height="44" viewBox="0 0 177 44" fill="none" xmlns="http://www.w3.org/2000/svg">
<g clip-path="url(#clip0_2944_969)">
<path d="M1.0108 32.5052L1.01081 10.8271L11.8498 16.8488V26.5437L20.5211 31.4213L29.1922 26.5437V16.8488L40.0313 10.8271V32.5052L20.5211 43.3441L1.0108 32.5052Z" fill="#88EF56"/>
<path fill-rule="evenodd" clip-rule="evenodd" d="M6.43032 13.8479L1.0108 10.8371L20.5211 -0.00195312L40.0313 10.8371L34.6118 13.8479V29.8053L20.5211 37.9346L6.43031 29.8053L6.43032 13.8479ZM34.0247 14.1741L29.1922 16.8587V16.7985L20.5211 11.9209L11.8498 16.7985V16.8587L7.01742 14.1741V29.4718L20.5211 37.2624L34.0247 29.4718V14.1741Z" fill="url(#paint0_linear_2944_969)"/>
<path d="M53.7175 34.1123V14.4759H61.5797C63.0243 14.4759 64.2292 14.6901 65.1944 15.1183C66.1596 15.5466 66.8851 16.1411 67.3709 16.9017C67.8567 17.656 68.0996 18.5253 68.0996 19.5097C68.0996 20.2767 67.9462 20.9511 67.6394 21.5328C67.3326 22.108 66.9107 22.5811 66.3738 22.9518C65.8432 23.3161 65.236 23.575 64.552 23.7284V23.9202C65.2999 23.9521 65.9998 24.1631 66.6518 24.553C67.3102 24.9429 67.8439 25.4894 68.253 26.1926C68.6621 26.8893 68.8667 27.7203 68.8667 28.6855C68.8667 29.7274 68.6078 30.6574 68.09 31.4756C67.5787 32.2874 66.8212 32.9298 65.8176 33.4028C64.8141 33.8758 63.5772 34.1123 62.1071 34.1123H53.7175ZM57.8691 30.7181H61.2537C62.4107 30.7181 63.2544 30.4976 63.785 30.0566C64.3155 29.6091 64.5808 29.0146 64.5808 28.2732C64.5808 27.7298 64.4498 27.2504 64.1877 26.835C63.9256 26.4195 63.5517 26.0935 63.0659 25.857C62.5865 25.6205 62.0144 25.5022 61.3496 25.5022H57.8691V30.7181ZM57.8691 22.6929H60.9469C61.5158 22.6929 62.0208 22.5938 62.4618 22.3957C62.9093 22.1911 63.2608 21.9035 63.5165 21.5328C63.7786 21.162 63.9096 20.7178 63.9096 20.2C63.9096 19.4905 63.6571 18.9184 63.1522 18.4838C62.6536 18.0491 61.9441 17.8318 61.0236 17.8318H57.8691V22.6929ZM75.4409 14.4759V34.1123H71.3564V14.4759H75.4409ZM88.0221 27.8417V19.385H92.1066V34.1123H88.1851V31.4372H88.0317C87.6993 32.3002 87.1464 32.9937 86.3729 33.5178C85.6059 34.042 84.6695 34.3041 83.5636 34.3041C82.5793 34.3041 81.7131 34.0803 80.9653 33.6329C80.2174 33.1855 79.6325 32.5494 79.2106 31.7249C78.7952 30.9003 78.5842 29.9127 78.5778 28.7622V19.385H82.6623V28.0335C82.6687 28.9028 82.9021 29.5899 83.3623 30.0949C83.8225 30.5999 84.4393 30.8524 85.2128 30.8524C85.705 30.8524 86.1652 30.7405 86.5935 30.5168C87.0217 30.2867 87.3669 29.9479 87.629 29.5004C87.8974 29.053 88.0285 28.5001 88.0221 27.8417ZM101.95 34.3999C100.435 34.3999 99.1315 34.0931 98.0384 33.4795C96.9518 32.8595 96.1144 31.9838 95.5264 30.8524C94.9383 29.7146 94.6443 28.3691 94.6443 26.8158C94.6443 25.3009 94.9383 23.9713 95.5264 22.8271C96.1144 21.683 96.9422 20.7913 98.0097 20.1521C99.0835 19.5129 100.343 19.1933 101.787 19.1933C102.759 19.1933 103.663 19.3499 104.501 19.6631C105.345 19.9699 106.08 20.4333 106.706 21.0534C107.339 21.6734 107.831 22.4532 108.183 23.3928C108.534 24.3261 108.71 25.4191 108.71 26.672V27.7938H96.2742V25.2625H104.865C104.865 24.6744 104.737 24.1535 104.482 23.6997C104.226 23.2458 103.871 22.8911 103.417 22.6354C102.97 22.3733 102.449 22.2423 101.855 22.2423C101.234 22.2423 100.685 22.3861 100.205 22.6737C99.7323 22.955 99.3616 23.3353 99.0931 23.8147C98.8247 24.2877 98.6872 24.8151 98.6808 25.3968V27.8034C98.6808 28.532 98.8151 29.1617 99.0835 29.6922C99.3584 30.2227 99.7451 30.6318 100.244 30.9195C100.742 31.2071 101.334 31.3509 102.017 31.3509C102.471 31.3509 102.887 31.287 103.264 31.1592C103.641 31.0313 103.964 30.8396 104.232 30.5839C104.501 30.3282 104.705 30.015 104.846 29.6443L108.624 29.8936C108.432 30.8012 108.039 31.5938 107.444 32.2714C106.856 32.9426 106.096 33.4667 105.162 33.8438C104.236 34.2146 103.165 34.3999 101.95 34.3999ZM111.317 34.1123V14.4759H119.064C120.554 14.4759 121.822 14.7604 122.871 15.3293C123.919 15.8918 124.718 16.6748 125.268 17.6784C125.824 18.6755 126.102 19.8261 126.102 21.1301C126.102 22.434 125.821 23.5846 125.258 24.5818C124.696 25.5789 123.881 26.3556 122.813 26.9117C121.752 27.4678 120.467 27.7458 118.959 27.7458H114.021V24.4188H118.288C119.087 24.4188 119.745 24.2813 120.263 24.0065C120.787 23.7252 121.177 23.3385 121.433 22.8463C121.695 22.3477 121.826 21.7757 121.826 21.1301C121.826 20.4781 121.695 19.9092 121.433 19.4234C121.177 18.9312 120.787 18.5509 120.263 18.2824C119.739 18.0075 119.074 17.8701 118.269 17.8701H115.469V34.1123H111.317ZM135.061 34.3999C133.546 34.3999 132.242 34.0931 131.149 33.4795C130.063 32.8595 129.225 31.9838 128.637 30.8524C128.049 29.7146 127.755 28.3691 127.755 26.8158C127.755 25.3009 128.049 23.9713 128.637 22.8271C129.225 21.683 130.053 20.7913 131.121 20.1521C132.194 19.5129 133.454 19.1933 134.898 19.1933C135.87 19.1933 136.774 19.3499 137.612 19.6631C138.455 19.9699 139.191 20.4333 139.817 21.0534C140.45 21.6734 140.942 22.4532 141.293 23.3928C141.645 24.3261 141.821 25.4191 141.821 26.672V27.7938H129.385V25.2625H137.976C137.976 24.6744 137.848 24.1535 137.592 23.6997C137.337 23.2458 136.982 22.8911 136.528 22.6354C136.081 22.3733 135.56 22.2423 134.965 22.2423C134.345 22.2423 133.796 22.3861 133.316 22.6737C132.843 22.955 132.472 23.3353 132.204 23.8147C131.936 24.2877 131.798 24.8151 131.792 25.3968V27.8034C131.792 28.532 131.926 29.1617 132.194 29.6922C132.469 30.2227 132.856 30.6318 133.355 30.9195C133.853 31.2071 134.444 31.3509 135.128 31.3509C135.582 31.3509 135.998 31.287 136.375 31.1592C136.752 31.0313 137.075 30.8396 137.343 30.5839C137.612 30.3282 137.816 30.015 137.957 29.6443L141.735 29.8936C141.543 30.8012 141.15 31.5938 140.555 32.2714C139.967 32.9426 139.206 33.4667 138.273 33.8438C137.346 34.2146 136.276 34.3999 135.061 34.3999ZM148.551 34.3904C147.611 34.3904 146.774 34.2274 146.039 33.9014C145.304 33.569 144.722 33.08 144.294 32.4344C143.872 31.7824 143.661 30.9706 143.661 29.999C143.661 29.1808 143.811 28.4937 144.112 27.9376C144.412 27.3815 144.821 26.934 145.339 26.5953C145.857 26.2565 146.445 26.0008 147.103 25.8282C147.768 25.6556 148.465 25.5342 149.193 25.4639C150.05 25.3744 150.74 25.2913 151.264 25.2146C151.788 25.1315 152.169 25.01 152.405 24.8502C152.642 24.6904 152.76 24.4539 152.76 24.1407V24.0832C152.76 23.4759 152.568 23.0061 152.185 22.6737C151.808 22.3414 151.271 22.1752 150.574 22.1752C149.839 22.1752 149.254 22.3382 148.819 22.6642C148.385 22.9838 148.097 23.3865 147.956 23.8722L144.179 23.5654C144.37 22.6705 144.748 21.8971 145.31 21.2451C145.873 20.5867 146.598 20.0818 147.487 19.7302C148.382 19.3722 149.417 19.1933 150.593 19.1933C151.411 19.1933 152.194 19.2892 152.942 19.4809C153.696 19.6727 154.364 19.9699 154.946 20.3726C155.534 20.7753 155.998 21.2931 156.336 21.9259C156.675 22.5523 156.845 23.3034 156.845 24.1791V34.1123H152.971V32.07H152.856C152.619 32.5303 152.303 32.9362 151.907 33.2877C151.51 33.6329 151.034 33.9046 150.478 34.1027C149.922 34.2945 149.28 34.3904 148.551 34.3904ZM149.721 31.5715C150.321 31.5715 150.852 31.4532 151.312 31.2167C151.772 30.9738 152.134 30.6478 152.396 30.2387C152.658 29.8296 152.789 29.3662 152.789 28.8485V27.2856C152.661 27.3687 152.485 27.4454 152.261 27.5157C152.044 27.5796 151.798 27.6404 151.523 27.6979C151.248 27.749 150.973 27.797 150.699 27.8417C150.424 27.8801 150.174 27.9152 149.951 27.9472C149.471 28.0175 149.053 28.1293 148.695 28.2828C148.337 28.4362 148.059 28.6439 147.861 28.906C147.662 29.1617 147.563 29.4813 147.563 29.8648C147.563 30.4209 147.765 30.846 148.167 31.14C148.576 31.4276 149.094 31.5715 149.721 31.5715ZM163.579 29.8744L163.589 24.9749H164.183L168.901 19.385H173.589L167.252 26.787H166.283L163.579 29.8744ZM159.878 34.1123V14.4759H163.963V34.1123H159.878ZM169.083 34.1123L164.749 27.6979L167.472 24.8119L173.867 34.1123H169.083Z" fill="#88EF56"/>
</g>
<defs>
<linearGradient id="paint0_linear_2944_969" x1="6.43031" y1="8.42837" x2="35.6957" y2="8.42838" gradientUnits="userSpaceOnUse">
<stop stop-color="#88EF56"/>
<stop offset="0.5" stop-color="#256306"/>
<stop offset="1" stop-color="#88EF56"/>
</linearGradient>
<clipPath id="clip0_2944_969">
<rect width="176.536" height="43.8456" fill="white"/>
</clipPath>
</defs>
</svg>
