<svg width="190" height="38" viewBox="0 0 190 38" fill="none" xmlns="http://www.w3.org/2000/svg">
<g clip-path="url(#clip0_2943_894)">
<path fill-rule="evenodd" clip-rule="evenodd" d="M24.0115 10.9755C22.4665 9.94311 20.6499 9.39206 18.7917 9.39206V-0.00341797C22.5082 -0.00341797 26.1412 1.09865 29.2314 3.16343C32.3216 5.2282 34.73 8.16296 36.1523 11.5965C37.5745 15.0301 37.9466 18.8084 37.2216 22.4535C36.4965 26.0985 34.7069 29.4468 32.0789 32.0747C29.451 34.7027 26.1027 36.4924 22.4576 37.2174C18.8126 37.9425 15.0343 37.5703 11.6007 36.1481C8.1671 34.7258 5.23235 32.3174 3.16758 29.2272C1.1028 26.1371 0.000732422 22.504 0.000732422 18.7875H9.39621C9.39621 20.6458 9.94726 22.4623 10.9796 24.0074C12.012 25.5525 13.4794 26.7567 15.1962 27.4678C16.913 28.179 18.8021 28.365 20.6247 28.0024C22.4472 27.64 24.1213 26.7451 25.4353 25.4312C26.7493 24.1171 27.6441 22.443 28.0066 20.6205C28.3692 18.798 28.1831 16.9088 27.472 15.1921C26.7608 13.4752 25.5566 12.0079 24.0115 10.9755Z" fill="white"/>
<path fill-rule="evenodd" clip-rule="evenodd" d="M9.3962 -0.003413C9.3962 1.23042 9.15319 2.45217 8.68102 3.59208C8.20885 4.73199 7.51679 5.76774 6.64433 6.64019C5.77189 7.51265 4.73614 8.20471 3.59623 8.67688C2.45631 9.14904 1.23456 9.39206 0.000732833 9.39206L0.000732422 18.7875C2.46839 18.7875 4.91189 18.3015 7.19172 17.3572C9.47156 16.4128 11.5431 15.0287 13.2879 13.2838C15.0328 11.5389 16.417 9.46741 17.3613 7.18757C18.3057 4.90774 18.7917 2.46424 18.7917 -0.00341797L9.3962 -0.003413Z" fill="white"/>
<path d="M65.486 17.8043H61.2864C61.2097 17.261 61.0531 16.7784 60.8166 16.3565C60.5801 15.9283 60.2765 15.5639 59.9058 15.2635C59.535 14.9631 59.1068 14.7329 58.621 14.5731C58.1416 14.4133 57.6206 14.3334 57.0581 14.3334C56.0418 14.3334 55.1565 14.5859 54.4022 15.0909C53.6479 15.5895 53.0631 16.3182 52.6476 17.277C52.2321 18.2294 52.0244 19.3864 52.0244 20.7479C52.0244 22.1477 52.2321 23.3239 52.6476 24.2763C53.0695 25.2287 53.6575 25.9478 54.4118 26.4336C55.1661 26.9194 56.0386 27.1623 57.0293 27.1623C57.5854 27.1623 58.1 27.0888 58.573 26.9418C59.0524 26.7947 59.4775 26.5806 59.8482 26.2993C60.219 26.0117 60.5258 25.6633 60.7687 25.2543C61.018 24.8452 61.1906 24.3785 61.2864 23.8544L65.486 23.8736C65.3774 24.7748 65.1057 25.6442 64.671 26.4815C64.2428 27.3125 63.6643 28.0572 62.9356 28.7155C62.2133 29.3675 61.3504 29.8853 60.3468 30.2688C59.3497 30.6459 58.2215 30.8345 56.9622 30.8345C55.2108 30.8345 53.6448 30.4382 52.2641 29.6456C50.8898 28.853 49.8031 27.7056 49.0041 26.2035C48.2115 24.7013 47.8152 22.8828 47.8152 20.7479C47.8152 18.6065 48.2179 16.7848 49.0233 15.2827C49.8287 13.7805 50.9217 12.6364 52.3024 11.8501C53.6831 11.0575 55.2364 10.6612 56.9622 10.6612C58.1 10.6612 59.1547 10.821 60.1263 11.1406C61.1043 11.4602 61.9704 11.9268 62.7247 12.5405C63.4789 13.1477 64.0926 13.8924 64.5656 14.7745C65.045 15.6566 65.3518 16.6665 65.486 17.8043ZM72.3359 10.9297V30.566H68.2514V10.9297H72.3359ZM82.127 30.8537C80.6376 30.8537 79.3496 30.5373 78.263 29.9045C77.1827 29.2653 76.3486 28.3768 75.7605 27.239C75.1724 26.0948 74.8784 24.7685 74.8784 23.2599C74.8784 21.7386 75.1724 20.4091 75.7605 19.2713C76.3486 18.1271 77.1827 17.2386 78.263 16.6058C79.3496 15.9666 80.6376 15.647 82.127 15.647C83.6163 15.647 84.9011 15.9666 85.9814 16.6058C87.068 17.2386 87.9054 18.1271 88.4934 19.2713C89.0815 20.4091 89.3756 21.7386 89.3756 23.2599C89.3756 24.7685 89.0815 26.0948 88.4934 27.239C87.9054 28.3768 87.068 29.2653 85.9814 29.9045C84.9011 30.5373 83.6163 30.8537 82.127 30.8537ZM82.1461 27.6896C82.8237 27.6896 83.3894 27.4979 83.8432 27.1143C84.2971 26.7244 84.639 26.1939 84.8692 25.5227C85.1057 24.8516 85.2239 24.0877 85.2239 23.2312C85.2239 22.3746 85.1057 21.6108 84.8692 20.9396C84.639 20.2685 84.2971 19.7379 83.8432 19.348C83.3894 18.9581 82.8237 18.7631 82.1461 18.7631C81.4622 18.7631 80.8869 18.9581 80.4203 19.348C79.9601 19.7379 79.6117 20.2685 79.3752 20.9396C79.1451 21.6108 79.03 22.3746 79.03 23.2312C79.03 24.0877 79.1451 24.8516 79.3752 25.5227C79.6117 26.1939 79.9601 26.7244 80.4203 27.1143C80.8869 27.4979 81.4622 27.6896 82.1461 27.6896ZM101.341 24.2954V15.8388H105.425V30.566H101.504V27.891H101.35C101.018 28.7539 100.465 29.4474 99.6915 29.9716C98.9245 30.4957 97.9881 30.7578 96.8822 30.7578C95.8979 30.7578 95.0317 30.5341 94.2839 30.0866C93.536 29.6392 92.9511 29.0032 92.5293 28.1786C92.1138 27.354 91.9028 26.3665 91.8964 25.2159V15.8388H95.981V24.4872C95.9874 25.3565 96.2207 26.0437 96.6809 26.5486C97.1411 27.0536 97.758 27.3061 98.5314 27.3061C99.0236 27.3061 99.4838 27.1942 99.9121 26.9705C100.34 26.7404 100.686 26.4016 100.948 25.9542C101.216 25.5067 101.347 24.9538 101.341 24.2954ZM113.984 30.8057C112.866 30.8057 111.852 30.5181 110.945 29.9428C110.043 29.3611 109.328 28.5078 108.797 27.3828C108.273 26.2514 108.011 24.8643 108.011 23.2216C108.011 21.5341 108.282 20.131 108.826 19.0124C109.369 17.8874 110.091 17.0469 110.993 16.4908C111.9 15.9283 112.894 15.647 113.975 15.647C114.799 15.647 115.486 15.7876 116.036 16.0689C116.592 16.3437 117.04 16.6889 117.378 17.1044C117.724 17.5135 117.986 17.9162 118.165 18.3125H118.289V10.9297H122.364V30.566H118.337V28.2074H118.165C117.973 28.6165 117.701 29.0224 117.35 29.4251C117.004 29.8214 116.554 30.1506 115.998 30.4126C115.448 30.6747 114.777 30.8057 113.984 30.8057ZM115.279 27.5554C115.937 27.5554 116.493 27.3764 116.947 27.0185C117.407 26.6541 117.759 26.1459 118.002 25.494C118.251 24.842 118.376 24.0781 118.376 23.2024C118.376 22.3267 118.254 21.566 118.011 20.9204C117.768 20.2748 117.417 19.7763 116.956 19.4247C116.496 19.0731 115.937 18.8974 115.279 18.8974C114.607 18.8974 114.042 19.0795 113.581 19.4439C113.121 19.8082 112.773 20.3132 112.536 20.9588C112.3 21.6044 112.182 22.3523 112.182 23.2024C112.182 24.0589 112.3 24.8164 112.536 25.4748C112.779 26.1268 113.128 26.6381 113.581 27.0089C114.042 27.3732 114.607 27.5554 115.279 27.5554ZM125.587 30.566V15.8388H129.672V30.566H125.587ZM127.639 13.9403C127.032 13.9403 126.511 13.739 126.076 13.3363C125.648 12.9272 125.434 12.4382 125.434 11.8693C125.434 11.3068 125.648 10.8242 126.076 10.4215C126.511 10.0124 127.032 9.80787 127.639 9.80787C128.246 9.80787 128.764 10.0124 129.192 10.4215C129.627 10.8242 129.844 11.3068 129.844 11.8693C129.844 12.4382 129.627 12.9272 129.192 13.3363C128.764 13.739 128.246 13.9403 127.639 13.9403ZM146.539 15.8388L141.39 30.566H136.788L131.639 15.8388H135.954L139.012 26.3761H139.166L142.215 15.8388H146.539ZM154.674 30.8537C153.184 30.8537 151.896 30.5373 150.81 29.9045C149.729 29.2653 148.895 28.3768 148.307 27.239C147.719 26.0948 147.425 24.7685 147.425 23.2599C147.425 21.7386 147.719 20.4091 148.307 19.2713C148.895 18.1271 149.729 17.2386 150.81 16.6058C151.896 15.9666 153.184 15.647 154.674 15.647C156.163 15.647 157.448 15.9666 158.528 16.6058C159.615 17.2386 160.452 18.1271 161.04 19.2713C161.628 20.4091 161.922 21.7386 161.922 23.2599C161.922 24.7685 161.628 26.0948 161.04 27.239C160.452 28.3768 159.615 29.2653 158.528 29.9045C157.448 30.5373 156.163 30.8537 154.674 30.8537ZM154.693 27.6896C155.37 27.6896 155.936 27.4979 156.39 27.1143C156.844 26.7244 157.186 26.1939 157.416 25.5227C157.652 24.8516 157.771 24.0877 157.771 23.2312C157.771 22.3746 157.652 21.6108 157.416 20.9396C157.186 20.2685 156.844 19.7379 156.39 19.348C155.936 18.9581 155.37 18.7631 154.693 18.7631C154.009 18.7631 153.434 18.9581 152.967 19.348C152.507 19.7379 152.158 20.2685 151.922 20.9396C151.692 21.6108 151.577 22.3746 151.577 23.2312C151.577 24.0877 151.692 24.8516 151.922 25.5227C152.158 26.1939 152.507 26.7244 152.967 27.1143C153.434 27.4979 154.009 27.6896 154.693 27.6896Z" fill="white"/>
</g>
<defs>
<clipPath id="clip0_2943_894">
<rect width="189.789" height="37.5819" fill="white"/>
</clipPath>
</defs>
</svg>
