<svg width="2116" height="122" viewBox="0 0 2116 122" fill="none" xmlns="http://www.w3.org/2000/svg">
<g clip-path="url(#clip0_2231_41)">
<rect width="2116" height="122" fill="white"/>
<mask id="mask0_2231_41" style="mask-type:alpha" maskUnits="userSpaceOnUse" x="-635" y="27" width="3406" height="209">
<path d="M2141.15 149.754V235.171H2133.17V149.754H2141.15ZM-628.319 92.415H-634.357V27.8047H-628.319V92.415ZM-615.959 92.415H-621.997V27.8047H-615.959V92.415ZM-603.6 92.415H-609.638V27.8047H-603.6V92.415ZM-591.24 92.415H-597.279V27.8047H-591.24V92.415ZM-578.881 92.415H-584.919V27.8047H-578.881V92.415ZM-566.522 92.415H-572.56V27.8047H-566.522V92.415ZM-554.162 92.415H-560.2V27.8047H-554.162V92.415ZM-541.803 92.415H-547.841V27.8047H-541.803V92.415ZM-529.444 92.415H-535.482V27.8047H-529.444V92.415ZM-517.083 92.415H-523.121V27.8047H-517.083V92.415ZM-504.724 92.415H-510.762V27.8047H-504.724V92.415ZM-492.365 92.415H-498.403V27.8047H-492.365V92.415ZM-480.005 92.415H-486.043V27.8047H-480.005V92.415ZM-467.646 92.415H-473.684V27.8047H-467.646V92.415ZM-455.286 92.415H-461.324V27.8047H-455.286V92.415ZM-442.927 92.415H-448.965V27.8047H-442.927V92.415ZM-430.568 92.415H-436.606V27.8047H-430.568V92.415ZM-418.208 92.415H-424.246V27.8047H-418.208V92.415ZM-405.849 92.415H-411.887V27.8047H-405.849V92.415ZM-393.49 92.415H-399.528V27.8047H-393.49V92.415ZM-381.13 92.415H-387.168V27.8047H-381.13V92.415ZM-368.771 92.415H-374.809V27.8047H-368.771V92.415ZM-356.411 92.415H-362.449V27.8047H-356.411V92.415ZM-344.052 92.415H-350.09V27.8047H-344.052V92.415ZM-331.693 92.415H-337.731V27.8047H-331.693V92.415ZM-319.333 92.415H-325.371V27.8047H-319.333V92.415ZM-306.974 92.415H-313.012V27.8047H-306.974V92.415ZM-294.615 92.415H-300.653V27.8047H-294.615V92.415ZM-282.255 92.415H-288.293V27.8047H-282.255V92.415ZM-269.896 92.415H-275.934V27.8047H-269.896V92.415ZM-257.536 92.415H-263.574V27.8047H-257.536V92.415ZM-245.177 92.415H-251.215V27.8047H-245.177V92.415ZM-232.818 92.415H-238.856V27.8047H-232.818V92.415ZM-220.458 92.415H-226.496V27.8047H-220.458V92.415ZM-208.099 92.415H-214.137V27.8047H-208.099V92.415ZM-195.74 92.415H-201.778V27.8047H-195.74V92.415ZM-183.38 92.415H-189.418V27.8047H-183.38V92.415ZM-171.021 92.415H-177.059V27.8047H-171.021V92.415ZM-158.661 92.415H-164.699V27.8047H-158.661V92.415ZM-146.302 92.415H-152.34V27.8047H-146.302V92.415ZM-133.943 92.415H-139.981V27.8047H-133.943V92.415ZM-121.583 92.415H-127.621V27.8047H-121.583V92.415ZM-109.224 92.415H-115.262V27.8047H-109.224V92.415ZM-96.8645 92.415H-102.903V27.8047H-96.8645V92.415ZM-84.5051 92.415H-90.5432V27.8047H-84.5051V92.415ZM-72.1458 92.415H-78.1838V27.8047H-72.1458V92.415ZM-59.7864 92.415H-65.8245V27.8047H-59.7864V92.415ZM-47.427 92.415H-53.4651V27.8047H-47.427V92.415ZM-35.0676 92.415H-41.1057V27.8047H-35.0676V92.415ZM-22.7083 92.415H-28.7463V27.8047H-22.7083V92.415ZM-10.3489 92.415H-16.387V27.8047H-10.3489V92.415ZM2.0105 92.415H-4.02759V27.8047H2.0105V92.415ZM14.3699 92.415H8.33179V27.8047H14.3699V92.415ZM26.7292 92.415H20.6912V27.8047H26.7292V92.415ZM39.0886 92.415H33.0505V27.8047H39.0886V92.415ZM51.448 92.415H45.4099V27.8047H51.448V92.415ZM63.8074 92.415H57.7693V27.8047H63.8074V92.415ZM76.1667 92.415H70.1287V27.8047H76.1667V92.415ZM88.5261 92.415H82.488V27.8047H88.5261V92.415ZM100.885 92.415H94.8474V27.8047H100.885V92.415ZM113.245 92.415H107.207V27.8047H113.245V92.415ZM125.604 92.415H119.566V27.8047H125.604V92.415ZM137.964 92.415H131.926V27.8047H137.964V92.415ZM150.323 92.415H144.285V27.8047H150.323V92.415ZM162.682 92.415H156.644V27.8047H162.682V92.415ZM175.042 92.415H169.004V27.8047H175.042V92.415ZM187.401 92.415H181.363V27.8047H187.401V92.415ZM199.76 92.415H193.722V27.8047H199.76V92.415ZM212.12 92.415H206.082V27.8047H212.12V92.415ZM224.479 92.415H218.441V27.8047H224.479V92.415ZM236.839 92.415H230.801V27.8047H236.839V92.415ZM249.198 92.415H243.16V27.8047H249.198V92.415ZM261.557 92.415H255.519V27.8047H261.557V92.415ZM273.917 92.415H267.879V27.8047H273.917V92.415ZM286.276 92.415H280.238V27.8047H286.276V92.415ZM298.635 92.415H292.597V27.8047H298.635V92.415ZM310.995 92.415H304.957V27.8047H310.995V92.415ZM323.354 92.415H317.316V27.8047H323.354V92.415ZM335.714 92.415H329.676V27.8047H335.714V92.415ZM348.073 92.415H342.035V27.8047H348.073V92.415ZM360.432 92.415H354.394V27.8047H360.432V92.415ZM372.792 92.415H366.754V27.8047H372.792V92.415ZM385.151 92.415H379.113V27.8047H385.151V92.415ZM397.51 92.415H391.472V27.8047H397.51V92.415ZM409.87 92.415H403.832V27.8047H409.87V92.415ZM422.229 92.415H416.191V27.8047H422.229V92.415ZM434.589 92.415H428.551V27.8047H434.589V92.415ZM446.948 92.415H440.91V27.8047H446.948V92.415ZM459.307 92.415H453.269V27.8047H459.307V92.415ZM471.667 92.415H465.629V27.8047H471.667V92.415ZM484.026 92.415H477.988V27.8047H484.026V92.415ZM496.385 92.415H490.347V27.8047H496.385V92.415ZM508.745 92.415H502.707V27.8047H508.745V92.415ZM521.104 92.415H515.066V27.8047H521.104V92.415ZM533.464 92.415H527.426V27.8047H533.464V92.415ZM545.823 92.415H539.785V27.8047H545.823V92.415ZM558.182 92.415H552.144V27.8047H558.182V92.415ZM570.542 92.415H564.504V27.8047H570.542V92.415ZM582.901 92.415H576.863V27.8047H582.901V92.415ZM595.26 92.415H589.222V27.8047H595.26V92.415ZM607.62 92.415H601.582V27.8047H607.62V92.415ZM619.979 92.415H613.941V27.8047H619.979V92.415ZM632.339 92.415H626.301V27.8047H632.339V92.415ZM644.698 92.415H638.66V27.8047H644.698V92.415ZM657.057 92.415H651.019V27.8047H657.057V92.415ZM669.417 92.415H663.379V27.8047H669.417V92.415ZM681.776 92.415H675.738V27.8047H681.776V92.415ZM694.135 92.415H688.097V27.8047H694.135V92.415ZM706.495 92.415H700.457V27.8047H706.495V92.415ZM718.854 92.415H712.816V27.8047H718.854V92.415ZM731.214 92.415H725.176V27.8047H731.214V92.415ZM743.573 92.415H737.535V27.8047H743.573V92.415ZM755.932 92.415H749.894V27.8047H755.932V92.415ZM768.292 92.415H762.254V27.8047H768.292V92.415ZM780.651 92.415H774.613V27.8047H780.651V92.415ZM793.01 92.415H786.972V27.8047H793.01V92.415ZM805.37 92.415H799.332V27.8047H805.37V92.415ZM817.729 92.415H811.691V27.8047H817.729V92.415ZM830.089 92.415H824.051V27.8047H830.089V92.415ZM842.448 92.415H836.41V27.8047H842.448V92.415ZM854.807 92.415H848.769V27.8047H854.807V92.415ZM867.167 92.415H861.129V27.8047H867.167V92.415ZM879.526 92.415H873.488V27.8047H879.526V92.415ZM891.885 92.415H885.847V27.8047H891.885V92.415ZM904.245 92.415H898.207V27.8047H904.245V92.415ZM916.604 92.415H910.566V27.8047H916.604V92.415ZM928.964 92.415H922.926V27.8047H928.964V92.415ZM941.323 92.415H935.285V27.8047H941.323V92.415ZM953.682 92.415H947.644V27.8047H953.682V92.415ZM966.042 92.415H960.004V27.8047H966.042V92.415ZM978.401 92.415H972.363V27.8047H978.401V92.415ZM990.76 92.415H984.722V27.8047H990.76V92.415ZM1003.12 92.415H997.082V27.8047H1003.12V92.415ZM1015.48 92.415H1009.44V27.8047H1015.48V92.415ZM1027.84 92.415H1021.8V27.8047H1027.84V92.415ZM1040.2 92.415H1034.16V27.8047H1040.2V92.415ZM1052.56 92.415H1046.52V27.8047H1052.56V92.415ZM1064.92 92.415H1058.88V27.8047H1064.92V92.415ZM1077.28 92.415H1071.24V27.8047H1077.28V92.415ZM1089.64 92.415H1083.6V27.8047H1089.64V92.415ZM1101.99 92.415H1095.96V27.8047H1101.99V92.415ZM1114.35 92.415H1108.32V27.8047H1114.35V92.415ZM1126.71 92.415H1120.68V27.8047H1126.71V92.415ZM1139.07 92.415H1133.03V27.8047H1139.07V92.415ZM1151.43 92.415H1145.39V27.8047H1151.43V92.415ZM1163.79 92.415H1157.75V27.8047H1163.79V92.415ZM1176.15 92.415H1170.11V27.8047H1176.15V92.415ZM1188.51 92.415H1182.47V27.8047H1188.51V92.415ZM1200.87 92.415H1194.83V27.8047H1200.87V92.415ZM1213.23 92.415H1207.19V27.8047H1213.23V92.415ZM1225.59 92.415H1219.55V27.8047H1225.59V92.415ZM1237.95 92.415H1231.91V27.8047H1237.95V92.415ZM1250.31 92.415H1244.27V27.8047H1250.31V92.415ZM1262.67 92.415H1256.63V27.8047H1262.67V92.415ZM1275.03 92.415H1268.99V27.8047H1275.03V92.415ZM1287.39 92.415H1281.35V27.8047H1287.39V92.415ZM1299.74 92.415H1293.71V27.8047H1299.74V92.415ZM1312.1 92.415H1306.07V27.8047H1312.1V92.415ZM1324.46 92.415H1318.43V27.8047H1324.46V92.415ZM1336.82 92.415H1330.78V27.8047H1336.82V92.415ZM1349.18 92.415H1343.14V27.8047H1349.18V92.415ZM1361.54 92.415H1355.5V27.8047H1361.54V92.415ZM1373.9 92.415H1367.86V27.8047H1373.9V92.415ZM1386.26 92.415H1380.22V27.8047H1386.26V92.415ZM1398.62 92.415H1392.58V27.8047H1398.62V92.415ZM1410.98 92.415H1404.94V27.8047H1410.98V92.415ZM1423.34 92.415H1417.3V27.8047H1423.34V92.415ZM1435.7 92.415H1429.66V27.8047H1435.7V92.415ZM1448.06 92.415H1442.02V27.8047H1448.06V92.415ZM1460.42 92.415H1454.38V27.8047H1460.42V92.415ZM1472.78 92.415H1466.74V27.8047H1472.78V92.415ZM1485.14 92.415H1479.1V27.8047H1485.14V92.415ZM1497.49 92.415H1491.46V27.8047H1497.49V92.415ZM1509.85 92.415H1503.82V27.8047H1509.85V92.415ZM1522.21 92.415H1516.18V27.8047H1522.21V92.415ZM1534.57 92.415H1528.53V27.8047H1534.57V92.415ZM1546.93 92.415H1540.89V27.8047H1546.93V92.415ZM1559.29 92.415H1553.25V27.8047H1559.29V92.415ZM1571.65 92.415H1565.61V27.8047H1571.65V92.415ZM1584.01 92.415H1577.97V27.8047H1584.01V92.415ZM1596.37 92.415H1590.33V27.8047H1596.37V92.415ZM1608.73 92.415H1602.69V27.8047H1608.73V92.415ZM1621.09 92.415H1615.05V27.8047H1621.09V92.415ZM1633.45 92.415H1627.41V27.8047H1633.45V92.415ZM1645.81 92.415H1639.77V27.8047H1645.81V92.415ZM1658.17 92.415H1652.13V27.8047H1658.17V92.415ZM1670.53 92.415H1664.49V27.8047H1670.53V92.415ZM1682.89 92.415H1676.85V27.8047H1682.89V92.415ZM1695.24 92.415H1689.21V27.8047H1695.24V92.415ZM1707.6 92.415H1701.57V27.8047H1707.6V92.415ZM1719.96 92.415H1713.93V27.8047H1719.96V92.415ZM1732.32 92.415H1726.28V27.8047H1732.32V92.415ZM1744.68 92.415H1738.64V27.8047H1744.68V92.415ZM1757.04 92.415H1751V27.8047H1757.04V92.415ZM1769.4 92.415H1763.36V27.8047H1769.4V92.415ZM1781.76 92.415H1775.72V27.8047H1781.76V92.415ZM1794.12 92.415H1788.08V27.8047H1794.12V92.415ZM1806.48 92.415H1800.44V27.8047H1806.48V92.415ZM1818.84 92.415H1812.8V27.8047H1818.84V92.415ZM1831.2 92.415H1825.16V27.8047H1831.2V92.415ZM1843.56 92.415H1837.52V27.8047H1843.56V92.415ZM1855.92 92.415H1849.88V27.8047H1855.92V92.415ZM1868.28 92.415H1862.24V27.8047H1868.28V92.415ZM1880.64 92.415H1874.6V27.8047H1880.64V92.415ZM1892.99 92.415H1886.96V27.8047H1892.99V92.415ZM1905.35 92.415H1899.32V27.8047H1905.35V92.415ZM1917.71 92.415H1911.68V27.8047H1917.71V92.415ZM1930.07 92.415H1924.03V27.8047H1930.07V92.415ZM1942.43 92.415H1936.39V27.8047H1942.43V92.415ZM1954.79 92.415H1948.75V27.8047H1954.79V92.415ZM1967.15 92.415H1961.11V27.8047H1967.15V92.415ZM1979.51 92.415H1973.47V27.8047H1979.51V92.415ZM1991.87 92.415H1985.83V27.8047H1991.87V92.415ZM2004.23 92.415H1998.19V27.8047H2004.23V92.415ZM2016.59 92.415H2010.55V27.8047H2016.59V92.415ZM2028.95 92.415H2022.91V27.8047H2028.95V92.415ZM2041.31 92.415H2035.27V27.8047H2041.31V92.415ZM2053.67 92.415H2047.63V27.8047H2053.67V92.415ZM2066.03 92.415H2059.99V27.8047H2066.03V92.415ZM2078.39 92.415H2072.35V27.8047H2078.39V92.415ZM2090.74 92.415H2084.71V27.8047H2090.74V92.415ZM2103.1 92.415H2097.07V27.8047H2103.1V92.415ZM2115.46 92.415H2109.43V27.8047H2115.46V92.415ZM2127.82 92.415H2121.78V27.8047H2127.82V92.415ZM2140.18 92.415H2134.14V27.8047H2140.18V92.415ZM2152.54 92.415H2146.5V27.8047H2152.54V92.415ZM2164.9 92.415H2158.86V27.8047H2164.9V92.415ZM2177.26 92.415H2171.22V27.8047H2177.26V92.415ZM2189.62 92.415H2183.58V27.8047H2189.62V92.415ZM2201.98 92.415H2195.94V27.8047H2201.98V92.415ZM2214.34 92.415H2208.3V27.8047H2214.34V92.415ZM2226.7 92.415H2220.66V27.8047H2226.7V92.415ZM2239.06 92.415H2233.02V27.8047H2239.06V92.415ZM2251.42 92.415H2245.38V27.8047H2251.42V92.415ZM2263.78 92.415H2257.74V27.8047H2263.78V92.415ZM2276.14 92.415H2270.1V27.8047H2276.14V92.415ZM2288.49 92.415H2282.46V27.8047H2288.49V92.415ZM2300.85 92.415H2294.82V27.8047H2300.85V92.415ZM2313.21 92.415H2307.18V27.8047H2313.21V92.415ZM2325.57 92.415H2319.53V27.8047H2325.57V92.415ZM2337.93 92.415H2331.89V27.8047H2337.93V92.415ZM2350.29 92.415H2344.25V27.8047H2350.29V92.415ZM2362.65 92.415H2356.61V27.8047H2362.65V92.415ZM2375.01 92.415H2368.97V27.8047H2375.01V92.415ZM2387.37 92.415H2381.33V27.8047H2387.37V92.415ZM2399.73 92.415H2393.69V27.8047H2399.73V92.415ZM2412.09 92.415H2406.05V27.8047H2412.09V92.415ZM2424.45 92.415H2418.41V27.8047H2424.45V92.415ZM2436.81 92.415H2430.77V27.8047H2436.81V92.415ZM2449.17 92.415H2443.13V27.8047H2449.17V92.415ZM2461.53 92.415H2455.49V27.8047H2461.53V92.415ZM2473.89 92.415H2467.85V27.8047H2473.89V92.415ZM2486.24 92.415H2480.21V27.8047H2486.24V92.415ZM2498.6 92.415H2492.57V27.8047H2498.6V92.415ZM2510.96 92.415H2504.93V27.8047H2510.96V92.415ZM2523.32 92.415H2517.28V27.8047H2523.32V92.415ZM2535.68 92.415H2529.64V27.8047H2535.68V92.415ZM2548.04 92.415H2542V27.8047H2548.04V92.415ZM2560.4 92.415H2554.36V27.8047H2560.4V92.415ZM2572.76 92.415H2566.72V27.8047H2572.76V92.415ZM2585.12 92.415H2579.08V27.8047H2585.12V92.415ZM2597.48 92.415H2591.44V27.8047H2597.48V92.415ZM2609.84 92.415H2603.8V27.8047H2609.84V92.415ZM2622.2 92.415H2616.16V27.8047H2622.2V92.415ZM2634.56 92.415H2628.52V27.8047H2634.56V92.415ZM2646.92 92.415H2640.88V27.8047H2646.92V92.415ZM2659.28 92.415H2653.24V27.8047H2659.28V92.415ZM2671.64 92.415H2665.6V27.8047H2671.64V92.415ZM2683.99 92.415H2677.96V27.8047H2683.99V92.415ZM2696.35 92.415H2690.32V27.8047H2696.35V92.415ZM2708.71 92.415H2702.68V27.8047H2708.71V92.415ZM2721.07 92.415H2715.03V27.8047H2721.07V92.415ZM2733.43 92.415H2727.39V27.8047H2733.43V92.415ZM2745.79 92.415H2739.75V27.8047H2745.79V92.415ZM2758.15 92.415H2752.11V27.8047H2758.15V92.415ZM2770.51 92.415H2764.47V27.8047H2770.51V92.415Z" fill="#44D62C"/>
</mask>
<g mask="url(#mask0_2231_41)">
<rect width="2139" height="2138" transform="matrix(4.37114e-08 -1 -1 -4.37114e-08 2126.69 1303)" fill="url(#paint0_linear_2231_41)"/>
</g>
</g>
<defs>
<linearGradient id="paint0_linear_2231_41" x1="1366.14" y1="2067.56" x2="2265.65" y2="1565.86" gradientUnits="userSpaceOnUse">
<stop stop-color="#44D62C"/>
<stop offset="1" stop-color="#48F895"/>
</linearGradient>
<clipPath id="clip0_2231_41">
<rect width="2116" height="122" fill="white"/>
</clipPath>
</defs>
</svg>
