<svg width="57" height="63" viewBox="0 0 57 63" fill="none" xmlns="http://www.w3.org/2000/svg">
<path d="M28.3187 0C28.3388 0.00403755 33.1135 0.966514 43.431 3.62958C53.206 6.14577 56.6374 7.15196 56.6374 7.15196C56.6374 7.15196 51.8642 14.2584 53.8162 33.5492C55.4326 49.4699 38.8105 51.2848 28.3187 62.9508C17.8269 51.2848 1.2048 49.4699 2.82126 33.5492C4.77321 14.2584 0 7.15196 0 7.15196C0.0130415 7.14814 3.44977 6.14096 13.2061 3.62958C23.5454 0.960883 28.3187 0 28.3187 0ZM28.3184 5.72638C27.7425 5.85222 26.9386 6.03082 25.8992 6.27073C23.4625 6.8332 19.7311 7.729 14.6058 9.05188L14.6022 9.05298C11.6285 9.81842 9.24884 10.4431 7.37947 10.9401C7.45567 11.2423 7.53109 11.5551 7.60443 11.8786C8.70363 16.7279 9.42223 23.9416 8.39305 34.1129L8.39269 34.1151C8.09681 37.0294 8.64081 38.9341 9.49852 40.4208C10.4339 42.0421 11.9823 43.5812 14.3637 45.3462C16.9472 47.2609 19.4095 48.7014 22.8446 51.0529C24.6229 52.2701 26.4851 53.6238 28.3184 55.1809C30.1518 53.6236 32.0144 52.2702 33.7928 51.0529C37.2279 48.7014 39.6899 47.2609 42.2734 45.3462C44.6548 43.5812 46.2032 42.0421 47.1386 40.4208C47.9963 38.9341 48.5403 37.0294 48.2444 34.1151V34.1129C47.2152 23.9416 47.9338 16.7279 49.033 11.8786C49.1063 11.5551 49.1814 11.2423 49.2576 10.9401C47.3882 10.4431 45.0085 9.8184 42.0349 9.05298L42.0316 9.05188C36.9065 7.72902 33.175 6.8332 30.7382 6.27073C29.6985 6.03074 28.8943 5.85222 28.3184 5.72638Z" fill="black"/>
<path d="M33.196 17.0814L31.148 23.4714L36.5827 19.5491L39.5932 28.8156L32.8848 28.8409L38.2978 32.8066L30.4171 38.5344L28.3185 32.1625L26.2199 38.5344L18.3392 32.8066L23.7522 28.8409L17.0439 28.8156L20.0543 19.5491L25.4999 23.4714L23.4519 17.0814H33.196Z" fill="black"/>
</svg>
